<?xml version="1.0" encoding="UTF-8"?><svg xmlns="http://www.w3.org/2000/svg" xmlns:xlink="http://www.w3.org/1999/xlink" fill-opacity="1" color-rendering="auto" color-interpolation="auto" text-rendering="auto" stroke="black" stroke-linecap="square" width="243" stroke-miterlimit="10" shape-rendering="auto" stroke-opacity="1" fill="black" stroke-dasharray="none" font-weight="normal" stroke-width="1" height="63" font-family="'Dialog'" font-style="normal" stroke-linejoin="miter" font-size="12px" stroke-dashoffset="0" image-rendering="auto">
  <!--Generated by ySVG 2.6-->
  <defs id="genericDefs"/>
  <g>
    <defs id="defs1">
      <clipPath clipPathUnits="userSpaceOnUse" id="clipPath1">
        <path d="M0 0 L243 0 L243 63 L0 63 L0 0 Z"/>
      </clipPath>
      <clipPath clipPathUnits="userSpaceOnUse" id="clipPath2">
        <path d="M553 404 L796 404 L796 467 L553 467 L553 404 Z"/>
      </clipPath>
    </defs>
    <g fill="rgb(205,164,182)" text-rendering="geometricPrecision" shape-rendering="geometricPrecision" transform="matrix(1,0,0,1,-553,-404)" stroke="rgb(205,164,182)">
      <rect x="553.0339" width="30" height="30" y="405" clip-path="url(#clipPath2)" stroke="none"/>
    </g>
    <g text-rendering="geometricPrecision" stroke-miterlimit="1.45" shape-rendering="geometricPrecision" transform="matrix(1,0,0,1,-553,-404)" stroke-linecap="butt">
      <rect fill="none" x="553.0339" width="30" height="30" y="405" clip-path="url(#clipPath2)"/>
      <text x="564.7357" y="424.0178" clip-path="url(#clipPath2)" fill="white" font-family="'Fira Sans Light'" stroke="none" xml:space="preserve">0</text>
    </g>
    <g fill="rgb(230,82,106)" text-rendering="geometricPrecision" shape-rendering="geometricPrecision" transform="matrix(1,0,0,1,-553,-404)" stroke="rgb(230,82,106)">
      <rect x="595.4858" width="30" height="30" y="405" clip-path="url(#clipPath2)" stroke="none"/>
    </g>
    <g text-rendering="geometricPrecision" stroke-miterlimit="1.45" shape-rendering="geometricPrecision" transform="matrix(1,0,0,1,-553,-404)" stroke-linecap="butt">
      <rect fill="none" x="595.4858" width="30" height="30" y="405" clip-path="url(#clipPath2)"/>
      <text x="608.0091" y="424.0178" clip-path="url(#clipPath2)" fill="white" font-family="'Fira Sans Light'" stroke="none" xml:space="preserve">1</text>
    </g>
    <g fill="rgb(253,170,125)" text-rendering="geometricPrecision" shape-rendering="geometricPrecision" transform="matrix(1,0,0,1,-553,-404)" stroke="rgb(253,170,125)">
      <rect x="637.9376" width="30" height="30" y="405" clip-path="url(#clipPath2)" stroke="none"/>
    </g>
    <g text-rendering="geometricPrecision" stroke-miterlimit="1.45" shape-rendering="geometricPrecision" transform="matrix(1,0,0,1,-553,-404)" stroke-linecap="butt">
      <rect fill="none" x="637.9376" width="30" height="30" y="405" clip-path="url(#clipPath2)"/>
      <text x="650.0652" y="424.0178" clip-path="url(#clipPath2)" fill="white" font-family="'Fira Sans Light'" stroke="none" xml:space="preserve">2</text>
    </g>
    <g fill="rgb(232,217,114)" text-rendering="geometricPrecision" shape-rendering="geometricPrecision" transform="matrix(1,0,0,1,-553,-404)" stroke="rgb(232,217,114)">
      <rect x="680.3894" width="30" height="30" y="405" clip-path="url(#clipPath2)" stroke="none"/>
    </g>
    <g text-rendering="geometricPrecision" stroke-miterlimit="1.45" shape-rendering="geometricPrecision" transform="matrix(1,0,0,1,-553,-404)" stroke-linecap="butt">
      <rect fill="none" x="680.3894" width="30" height="30" y="405" clip-path="url(#clipPath2)"/>
      <text x="692.475" y="424.0178" clip-path="url(#clipPath2)" fill="white" font-family="'Fira Sans Light'" stroke="none" xml:space="preserve">3</text>
    </g>
    <g fill="rgb(183,204,117)" text-rendering="geometricPrecision" shape-rendering="geometricPrecision" transform="matrix(1,0,0,1,-553,-404)" stroke="rgb(183,204,117)">
      <rect x="722.8413" width="30" height="30" y="405" clip-path="url(#clipPath2)" stroke="none"/>
    </g>
    <g text-rendering="geometricPrecision" stroke-miterlimit="1.45" shape-rendering="geometricPrecision" transform="matrix(1,0,0,1,-553,-404)" stroke-linecap="butt">
      <rect fill="none" x="722.8413" width="30" height="30" y="405" clip-path="url(#clipPath2)"/>
      <text x="734.735" y="424.0178" clip-path="url(#clipPath2)" fill="white" font-family="'Fira Sans Light'" stroke="none" xml:space="preserve">4</text>
    </g>
    <g fill="rgb(100,139,191)" text-rendering="geometricPrecision" shape-rendering="geometricPrecision" transform="matrix(1,0,0,1,-553,-404)" stroke="rgb(100,139,191)">
      <rect x="765.2931" width="30" height="30" y="405" clip-path="url(#clipPath2)" stroke="none"/>
    </g>
    <g text-rendering="geometricPrecision" stroke-miterlimit="1.45" shape-rendering="geometricPrecision" transform="matrix(1,0,0,1,-553,-404)" stroke-linecap="butt">
      <rect fill="none" x="765.2931" width="30" height="30" y="405" clip-path="url(#clipPath2)"/>
      <text x="777.3727" y="424.0178" clip-path="url(#clipPath2)" fill="white" font-family="'Fira Sans Light'" stroke="none" xml:space="preserve">5</text>
    </g>
    <g fill="rgb(205,164,182)" text-rendering="geometricPrecision" shape-rendering="geometricPrecision" transform="matrix(1,0,0,1,-553,-404)" stroke="rgb(205,164,182)">
      <rect x="553.0339" width="30" height="30" y="436" clip-path="url(#clipPath2)" stroke="none"/>
    </g>
    <g text-rendering="geometricPrecision" stroke-miterlimit="1.45" shape-rendering="geometricPrecision" transform="matrix(1,0,0,1,-553,-404)" stroke-linecap="butt">
      <rect fill="none" x="553.0339" width="30" height="30" y="436" clip-path="url(#clipPath2)"/>
      <text x="564.7357" y="455.0178" clip-path="url(#clipPath2)" fill="white" font-family="'Fira Sans Light'" stroke="none" xml:space="preserve">0</text>
    </g>
    <g fill="rgb(230,82,106)" text-rendering="geometricPrecision" shape-rendering="geometricPrecision" transform="matrix(1,0,0,1,-553,-404)" stroke="rgb(230,82,106)">
      <rect x="595.4858" width="30" height="30" y="436" clip-path="url(#clipPath2)" stroke="none"/>
    </g>
    <g text-rendering="geometricPrecision" stroke-miterlimit="1.45" shape-rendering="geometricPrecision" transform="matrix(1,0,0,1,-553,-404)" stroke-linecap="butt">
      <rect fill="none" x="595.4858" width="30" height="30" y="436" clip-path="url(#clipPath2)"/>
      <text x="608.0091" y="455.0178" clip-path="url(#clipPath2)" fill="white" font-family="'Fira Sans Light'" stroke="none" xml:space="preserve">1</text>
    </g>
    <g fill="rgb(253,170,125)" text-rendering="geometricPrecision" shape-rendering="geometricPrecision" transform="matrix(1,0,0,1,-553,-404)" stroke="rgb(253,170,125)">
      <rect x="637.9376" width="30" height="30" y="436" clip-path="url(#clipPath2)" stroke="none"/>
    </g>
    <g text-rendering="geometricPrecision" stroke-miterlimit="1.45" shape-rendering="geometricPrecision" transform="matrix(1,0,0,1,-553,-404)" stroke-linecap="butt">
      <rect fill="none" x="637.9376" width="30" height="30" y="436" clip-path="url(#clipPath2)"/>
      <text x="650.0652" y="455.0178" clip-path="url(#clipPath2)" fill="white" font-family="'Fira Sans Light'" stroke="none" xml:space="preserve">2</text>
    </g>
    <g fill="rgb(232,217,114)" text-rendering="geometricPrecision" shape-rendering="geometricPrecision" transform="matrix(1,0,0,1,-553,-404)" stroke="rgb(232,217,114)">
      <rect x="680.3894" width="30" height="30" y="436" clip-path="url(#clipPath2)" stroke="none"/>
    </g>
    <g text-rendering="geometricPrecision" stroke-miterlimit="1.45" shape-rendering="geometricPrecision" transform="matrix(1,0,0,1,-553,-404)" stroke-linecap="butt">
      <rect fill="none" x="680.3894" width="30" height="30" y="436" clip-path="url(#clipPath2)"/>
      <text x="692.475" y="455.0178" clip-path="url(#clipPath2)" fill="white" font-family="'Fira Sans Light'" stroke="none" xml:space="preserve">3</text>
    </g>
    <g fill="rgb(183,204,117)" text-rendering="geometricPrecision" shape-rendering="geometricPrecision" transform="matrix(1,0,0,1,-553,-404)" stroke="rgb(183,204,117)">
      <rect x="722.8413" width="30" height="30" y="436" clip-path="url(#clipPath2)" stroke="none"/>
    </g>
    <g text-rendering="geometricPrecision" stroke-miterlimit="1.45" shape-rendering="geometricPrecision" transform="matrix(1,0,0,1,-553,-404)" stroke-linecap="butt">
      <rect fill="none" x="722.8413" width="30" height="30" y="436" clip-path="url(#clipPath2)"/>
      <text x="734.735" y="455.0178" clip-path="url(#clipPath2)" fill="white" font-family="'Fira Sans Light'" stroke="none" xml:space="preserve">4</text>
    </g>
    <g fill="rgb(100,139,191)" text-rendering="geometricPrecision" shape-rendering="geometricPrecision" transform="matrix(1,0,0,1,-553,-404)" stroke="rgb(100,139,191)">
      <rect x="765.2931" width="30" height="30" y="436" clip-path="url(#clipPath2)" stroke="none"/>
    </g>
    <g text-rendering="geometricPrecision" stroke-miterlimit="1.45" shape-rendering="geometricPrecision" transform="matrix(1,0,0,1,-553,-404)" stroke-linecap="butt">
      <rect fill="none" x="765.2931" width="30" height="30" y="436" clip-path="url(#clipPath2)"/>
      <text x="777.3727" y="455.0178" clip-path="url(#clipPath2)" fill="white" font-family="'Fira Sans Light'" stroke="none" xml:space="preserve">5</text>
    </g>
  </g>
</svg>
