<?xml version="1.0" encoding="UTF-8"?><svg xmlns="http://www.w3.org/2000/svg" xmlns:xlink="http://www.w3.org/1999/xlink" fill-opacity="1" color-rendering="auto" color-interpolation="auto" text-rendering="auto" stroke="black" stroke-linecap="square" width="243" stroke-miterlimit="10" shape-rendering="auto" stroke-opacity="1" fill="black" stroke-dasharray="none" font-weight="normal" stroke-width="1" height="61" font-family="'Dialog'" font-style="normal" stroke-linejoin="miter" font-size="12px" stroke-dashoffset="0" image-rendering="auto">
  <!--Generated by ySVG 2.6-->
  <defs id="genericDefs"/>
  <g>
    <defs id="defs1">
      <clipPath clipPathUnits="userSpaceOnUse" id="clipPath1">
        <path d="M0 0 L243 0 L243 61 L0 61 L0 0 Z"/>
      </clipPath>
      <clipPath clipPathUnits="userSpaceOnUse" id="clipPath2">
        <path d="M498 435 L741 435 L741 496 L498 496 L498 435 Z"/>
      </clipPath>
    </defs>
    <g fill="rgb(205,164,182)" text-rendering="geometricPrecision" shape-rendering="geometricPrecision" transform="matrix(1,0,0,1,-498,-435)" stroke="rgb(205,164,182)">
      <rect x="583.0678" width="30" height="30" y="435" clip-path="url(#clipPath2)" stroke="none"/>
    </g>
    <g text-rendering="geometricPrecision" stroke-miterlimit="1.45" shape-rendering="geometricPrecision" transform="matrix(1,0,0,1,-498,-435)" stroke-linecap="butt">
      <rect fill="none" x="583.0678" width="30" height="30" y="435" clip-path="url(#clipPath2)"/>
      <text x="594.7697" y="454.0178" clip-path="url(#clipPath2)" fill="white" font-family="'Fira Sans Light'" stroke="none" xml:space="preserve">0</text>
    </g>
    <g fill="rgb(230,82,106)" text-rendering="geometricPrecision" shape-rendering="geometricPrecision" transform="matrix(1,0,0,1,-498,-435)" stroke="rgb(230,82,106)">
      <rect x="667.9715" width="30" height="30" y="435" clip-path="url(#clipPath2)" stroke="none"/>
    </g>
    <g text-rendering="geometricPrecision" stroke-miterlimit="1.45" shape-rendering="geometricPrecision" transform="matrix(1,0,0,1,-498,-435)" stroke-linecap="butt">
      <rect fill="none" x="667.9715" width="30" height="30" y="435" clip-path="url(#clipPath2)"/>
      <text x="680.4949" y="454.0178" clip-path="url(#clipPath2)" fill="white" font-family="'Fira Sans Light'" stroke="none" xml:space="preserve">1</text>
    </g>
    <g fill="rgb(253,170,125)" text-rendering="geometricPrecision" shape-rendering="geometricPrecision" transform="matrix(1,0,0,1,-498,-435)" stroke="rgb(253,170,125)">
      <rect x="540.616" width="30" height="30" y="435" clip-path="url(#clipPath2)" stroke="none"/>
    </g>
    <g text-rendering="geometricPrecision" stroke-miterlimit="1.45" shape-rendering="geometricPrecision" transform="matrix(1,0,0,1,-498,-435)" stroke-linecap="butt">
      <rect fill="none" x="540.616" width="30" height="30" y="435" clip-path="url(#clipPath2)"/>
      <text x="552.7436" y="454.0178" clip-path="url(#clipPath2)" fill="white" font-family="'Fira Sans Light'" stroke="none" xml:space="preserve">2</text>
    </g>
    <g fill="rgb(232,217,114)" text-rendering="geometricPrecision" shape-rendering="geometricPrecision" transform="matrix(1,0,0,1,-498,-435)" stroke="rgb(232,217,114)">
      <rect x="625.5197" width="30" height="30" y="435" clip-path="url(#clipPath2)" stroke="none"/>
    </g>
    <g text-rendering="geometricPrecision" stroke-miterlimit="1.45" shape-rendering="geometricPrecision" transform="matrix(1,0,0,1,-498,-435)" stroke-linecap="butt">
      <rect fill="none" x="625.5197" width="30" height="30" y="435" clip-path="url(#clipPath2)"/>
      <text x="637.6053" y="454.0178" clip-path="url(#clipPath2)" fill="white" font-family="'Fira Sans Light'" stroke="none" xml:space="preserve">3</text>
    </g>
    <g fill="rgb(183,204,117)" text-rendering="geometricPrecision" shape-rendering="geometricPrecision" transform="matrix(1,0,0,1,-498,-435)" stroke="rgb(183,204,117)">
      <rect x="710.4234" width="30" height="30" y="435" clip-path="url(#clipPath2)" stroke="none"/>
    </g>
    <g text-rendering="geometricPrecision" stroke-miterlimit="1.45" shape-rendering="geometricPrecision" transform="matrix(1,0,0,1,-498,-435)" stroke-linecap="butt">
      <rect fill="none" x="710.4234" width="30" height="30" y="435" clip-path="url(#clipPath2)"/>
      <text x="722.3171" y="454.0178" clip-path="url(#clipPath2)" fill="white" font-family="'Fira Sans Light'" stroke="none" xml:space="preserve">4</text>
    </g>
    <g fill="rgb(100,139,191)" text-rendering="geometricPrecision" shape-rendering="geometricPrecision" transform="matrix(1,0,0,1,-498,-435)" stroke="rgb(100,139,191)">
      <rect x="498.1642" width="30" height="30" y="435" clip-path="url(#clipPath2)" stroke="none"/>
    </g>
    <g text-rendering="geometricPrecision" stroke-miterlimit="1.45" shape-rendering="geometricPrecision" transform="matrix(1,0,0,1,-498,-435)" stroke-linecap="butt">
      <rect fill="none" x="498.1642" width="30" height="30" y="435" clip-path="url(#clipPath2)"/>
      <text x="510.2438" y="454.0178" clip-path="url(#clipPath2)" fill="white" font-family="'Fira Sans Light'" stroke="none" xml:space="preserve">5</text>
    </g>
    <g fill="rgb(205,164,182)" text-rendering="geometricPrecision" shape-rendering="geometricPrecision" transform="matrix(1,0,0,1,-498,-435)" stroke="rgb(205,164,182)">
      <rect x="583.0678" width="30" height="30" y="466" clip-path="url(#clipPath2)" stroke="none"/>
    </g>
    <g text-rendering="geometricPrecision" stroke-miterlimit="1.45" shape-rendering="geometricPrecision" transform="matrix(1,0,0,1,-498,-435)" stroke-linecap="butt">
      <rect fill="none" x="583.0678" width="30" height="30" y="466" clip-path="url(#clipPath2)"/>
      <text x="594.7697" y="485.0178" clip-path="url(#clipPath2)" fill="white" font-family="'Fira Sans Light'" stroke="none" xml:space="preserve">0</text>
    </g>
    <g fill="rgb(230,82,106)" text-rendering="geometricPrecision" shape-rendering="geometricPrecision" transform="matrix(1,0,0,1,-498,-435)" stroke="rgb(230,82,106)">
      <rect x="667.9715" width="30" height="30" y="466" clip-path="url(#clipPath2)" stroke="none"/>
    </g>
    <g text-rendering="geometricPrecision" stroke-miterlimit="1.45" shape-rendering="geometricPrecision" transform="matrix(1,0,0,1,-498,-435)" stroke-linecap="butt">
      <rect fill="none" x="667.9715" width="30" height="30" y="466" clip-path="url(#clipPath2)"/>
      <text x="680.4949" y="485.0178" clip-path="url(#clipPath2)" fill="white" font-family="'Fira Sans Light'" stroke="none" xml:space="preserve">1</text>
    </g>
    <g fill="rgb(253,170,125)" text-rendering="geometricPrecision" shape-rendering="geometricPrecision" transform="matrix(1,0,0,1,-498,-435)" stroke="rgb(253,170,125)">
      <rect x="540.616" width="30" height="30" y="466" clip-path="url(#clipPath2)" stroke="none"/>
    </g>
    <g text-rendering="geometricPrecision" stroke-miterlimit="1.45" shape-rendering="geometricPrecision" transform="matrix(1,0,0,1,-498,-435)" stroke-linecap="butt">
      <rect fill="none" x="540.616" width="30" height="30" y="466" clip-path="url(#clipPath2)"/>
      <text x="552.7436" y="485.0178" clip-path="url(#clipPath2)" fill="white" font-family="'Fira Sans Light'" stroke="none" xml:space="preserve">2</text>
    </g>
    <g fill="rgb(232,217,114)" text-rendering="geometricPrecision" shape-rendering="geometricPrecision" transform="matrix(1,0,0,1,-498,-435)" stroke="rgb(232,217,114)">
      <rect x="625.5197" width="30" height="30" y="466" clip-path="url(#clipPath2)" stroke="none"/>
    </g>
    <g text-rendering="geometricPrecision" stroke-miterlimit="1.45" shape-rendering="geometricPrecision" transform="matrix(1,0,0,1,-498,-435)" stroke-linecap="butt">
      <rect fill="none" x="625.5197" width="30" height="30" y="466" clip-path="url(#clipPath2)"/>
      <text x="637.6053" y="485.0178" clip-path="url(#clipPath2)" fill="white" font-family="'Fira Sans Light'" stroke="none" xml:space="preserve">3</text>
    </g>
    <g fill="rgb(183,204,117)" text-rendering="geometricPrecision" shape-rendering="geometricPrecision" transform="matrix(1,0,0,1,-498,-435)" stroke="rgb(183,204,117)">
      <rect x="710.4234" width="30" height="30" y="466" clip-path="url(#clipPath2)" stroke="none"/>
    </g>
    <g text-rendering="geometricPrecision" stroke-miterlimit="1.45" shape-rendering="geometricPrecision" transform="matrix(1,0,0,1,-498,-435)" stroke-linecap="butt">
      <rect fill="none" x="710.4234" width="30" height="30" y="466" clip-path="url(#clipPath2)"/>
      <text x="722.3171" y="485.0178" clip-path="url(#clipPath2)" fill="white" font-family="'Fira Sans Light'" stroke="none" xml:space="preserve">4</text>
    </g>
    <g fill="rgb(100,139,191)" text-rendering="geometricPrecision" shape-rendering="geometricPrecision" transform="matrix(1,0,0,1,-498,-435)" stroke="rgb(100,139,191)">
      <rect x="498.1642" width="30" height="30" y="466" clip-path="url(#clipPath2)" stroke="none"/>
    </g>
    <g text-rendering="geometricPrecision" stroke-miterlimit="1.45" shape-rendering="geometricPrecision" transform="matrix(1,0,0,1,-498,-435)" stroke-linecap="butt">
      <rect fill="none" x="498.1642" width="30" height="30" y="466" clip-path="url(#clipPath2)"/>
      <text x="510.2438" y="485.0178" clip-path="url(#clipPath2)" fill="white" font-family="'Fira Sans Light'" stroke="none" xml:space="preserve">5</text>
    </g>
  </g>
</svg>
