<?xml version="1.0" encoding="UTF-8"?><svg xmlns="http://www.w3.org/2000/svg" xmlns:xlink="http://www.w3.org/1999/xlink" fill-opacity="1" color-rendering="auto" color-interpolation="auto" text-rendering="auto" stroke="black" stroke-linecap="square" width="243" stroke-miterlimit="10" shape-rendering="auto" stroke-opacity="1" fill="black" stroke-dasharray="none" font-weight="normal" stroke-width="1" height="77" font-family="'Dialog'" font-style="normal" stroke-linejoin="miter" font-size="12px" stroke-dashoffset="0" image-rendering="auto">
  <!--Generated by ySVG 2.6-->
  <defs id="genericDefs"/>
  <g>
    <defs id="defs1">
      <clipPath clipPathUnits="userSpaceOnUse" id="clipPath1">
        <path d="M0 0 L243 0 L243 77 L0 77 L0 0 Z"/>
      </clipPath>
      <clipPath clipPathUnits="userSpaceOnUse" id="clipPath2">
        <path d="M528 435 L771 435 L771 512 L528 512 L528 435 Z"/>
      </clipPath>
    </defs>
    <g fill="rgb(205,164,182)" text-rendering="geometricPrecision" shape-rendering="geometricPrecision" transform="matrix(1,0,0,1,-528,-435)" stroke="rgb(205,164,182)">
      <rect x="655.6838" width="30" height="30" y="436" clip-path="url(#clipPath2)" stroke="none"/>
    </g>
    <g text-rendering="geometricPrecision" stroke-miterlimit="1.45" shape-rendering="geometricPrecision" transform="matrix(1,0,0,1,-528,-435)" stroke-linecap="butt">
      <rect fill="none" x="655.6838" width="30" height="30" y="436" clip-path="url(#clipPath2)"/>
      <text x="667.3857" y="455.0178" clip-path="url(#clipPath2)" fill="white" font-family="'Fira Sans Light'" stroke="none" xml:space="preserve">0</text>
    </g>
    <g fill="rgb(230,82,106)" text-rendering="geometricPrecision" shape-rendering="geometricPrecision" transform="matrix(1,0,0,1,-528,-435)" stroke="rgb(230,82,106)">
      <rect x="740.5875" width="30" height="30" y="436" clip-path="url(#clipPath2)" stroke="none"/>
    </g>
    <g text-rendering="geometricPrecision" stroke-miterlimit="1.45" shape-rendering="geometricPrecision" transform="matrix(1,0,0,1,-528,-435)" stroke-linecap="butt">
      <rect fill="none" x="740.5875" width="30" height="30" y="436" clip-path="url(#clipPath2)"/>
      <text x="753.1109" y="455.0178" clip-path="url(#clipPath2)" fill="white" font-family="'Fira Sans Light'" stroke="none" xml:space="preserve">1</text>
    </g>
    <g fill="rgb(253,170,125)" text-rendering="geometricPrecision" shape-rendering="geometricPrecision" transform="matrix(1,0,0,1,-528,-435)" stroke="rgb(253,170,125)">
      <rect x="613.232" width="30" height="30" y="436" clip-path="url(#clipPath2)" stroke="none"/>
    </g>
    <g text-rendering="geometricPrecision" stroke-miterlimit="1.45" shape-rendering="geometricPrecision" transform="matrix(1,0,0,1,-528,-435)" stroke-linecap="butt">
      <rect fill="none" x="613.232" width="30" height="30" y="436" clip-path="url(#clipPath2)"/>
      <text x="625.3596" y="455.0178" clip-path="url(#clipPath2)" fill="white" font-family="'Fira Sans Light'" stroke="none" xml:space="preserve">2</text>
    </g>
    <g fill="rgb(232,217,114)" text-rendering="geometricPrecision" shape-rendering="geometricPrecision" transform="matrix(1,0,0,1,-528,-435)" stroke="rgb(232,217,114)">
      <rect x="698.1357" width="30" height="30" y="436" clip-path="url(#clipPath2)" stroke="none"/>
    </g>
    <g text-rendering="geometricPrecision" stroke-miterlimit="1.45" shape-rendering="geometricPrecision" transform="matrix(1,0,0,1,-528,-435)" stroke-linecap="butt">
      <rect fill="none" x="698.1357" width="30" height="30" y="436" clip-path="url(#clipPath2)"/>
      <text x="710.2213" y="455.0178" clip-path="url(#clipPath2)" fill="white" font-family="'Fira Sans Light'" stroke="none" xml:space="preserve">3</text>
    </g>
    <g fill="rgb(183,204,117)" text-rendering="geometricPrecision" shape-rendering="geometricPrecision" transform="matrix(1,0,0,1,-528,-435)" stroke="rgb(183,204,117)">
      <rect x="528.3283" width="30" height="30" y="436" clip-path="url(#clipPath2)" stroke="none"/>
    </g>
    <g text-rendering="geometricPrecision" stroke-miterlimit="1.45" shape-rendering="geometricPrecision" transform="matrix(1,0,0,1,-528,-435)" stroke-linecap="butt">
      <rect fill="none" x="528.3283" width="30" height="30" y="436" clip-path="url(#clipPath2)"/>
      <text x="540.222" y="455.0178" clip-path="url(#clipPath2)" fill="white" font-family="'Fira Sans Light'" stroke="none" xml:space="preserve">4</text>
    </g>
    <g fill="rgb(100,139,191)" text-rendering="geometricPrecision" shape-rendering="geometricPrecision" transform="matrix(1,0,0,1,-528,-435)" stroke="rgb(100,139,191)">
      <rect x="570.7802" width="30" height="30" y="436" clip-path="url(#clipPath2)" stroke="none"/>
    </g>
    <g text-rendering="geometricPrecision" stroke-miterlimit="1.45" shape-rendering="geometricPrecision" transform="matrix(1,0,0,1,-528,-435)" stroke-linecap="butt">
      <rect fill="none" x="570.7802" width="30" height="30" y="436" clip-path="url(#clipPath2)"/>
      <text x="582.8597" y="455.0178" clip-path="url(#clipPath2)" fill="white" font-family="'Fira Sans Light'" stroke="none" xml:space="preserve">5</text>
    </g>
    <g fill="rgb(205,164,182)" text-rendering="geometricPrecision" shape-rendering="geometricPrecision" transform="matrix(1,0,0,1,-528,-435)" stroke="rgb(205,164,182)">
      <rect x="613.232" width="30" height="30" y="481.9098" clip-path="url(#clipPath2)" stroke="none"/>
    </g>
    <g text-rendering="geometricPrecision" stroke-miterlimit="1.45" shape-rendering="geometricPrecision" transform="matrix(1,0,0,1,-528,-435)" stroke-linecap="butt">
      <rect fill="none" x="613.232" width="30" height="30" y="481.9098" clip-path="url(#clipPath2)"/>
      <text x="624.9338" y="500.9276" clip-path="url(#clipPath2)" fill="white" font-family="'Fira Sans Light'" stroke="none" xml:space="preserve">0</text>
    </g>
    <g fill="rgb(230,82,106)" text-rendering="geometricPrecision" shape-rendering="geometricPrecision" transform="matrix(1,0,0,1,-528,-435)" stroke="rgb(230,82,106)">
      <rect x="698.1357" width="30" height="30" y="481.9098" clip-path="url(#clipPath2)" stroke="none"/>
    </g>
    <g text-rendering="geometricPrecision" stroke-miterlimit="1.45" shape-rendering="geometricPrecision" transform="matrix(1,0,0,1,-528,-435)" stroke-linecap="butt">
      <rect fill="none" x="698.1357" width="30" height="30" y="481.9098" clip-path="url(#clipPath2)"/>
      <text x="710.6591" y="500.9276" clip-path="url(#clipPath2)" fill="white" font-family="'Fira Sans Light'" stroke="none" xml:space="preserve">1</text>
    </g>
    <g fill="rgb(253,170,125)" text-rendering="geometricPrecision" shape-rendering="geometricPrecision" transform="matrix(1,0,0,1,-528,-435)" stroke="rgb(253,170,125)">
      <rect x="570.7802" width="30" height="30" y="481.9098" clip-path="url(#clipPath2)" stroke="none"/>
    </g>
    <g text-rendering="geometricPrecision" stroke-miterlimit="1.45" shape-rendering="geometricPrecision" transform="matrix(1,0,0,1,-528,-435)" stroke-linecap="butt">
      <rect fill="none" x="570.7802" width="30" height="30" y="481.9098" clip-path="url(#clipPath2)"/>
      <text x="582.9077" y="500.9276" clip-path="url(#clipPath2)" fill="white" font-family="'Fira Sans Light'" stroke="none" xml:space="preserve">2</text>
    </g>
    <g fill="rgb(232,217,114)" text-rendering="geometricPrecision" shape-rendering="geometricPrecision" transform="matrix(1,0,0,1,-528,-435)" stroke="rgb(232,217,114)">
      <rect x="655.6838" width="30" height="30" y="481.9098" clip-path="url(#clipPath2)" stroke="none"/>
    </g>
    <g text-rendering="geometricPrecision" stroke-miterlimit="1.45" shape-rendering="geometricPrecision" transform="matrix(1,0,0,1,-528,-435)" stroke-linecap="butt">
      <rect fill="none" x="655.6838" width="30" height="30" y="481.9098" clip-path="url(#clipPath2)"/>
      <text x="667.7695" y="500.9276" clip-path="url(#clipPath2)" fill="white" font-family="'Fira Sans Light'" stroke="none" xml:space="preserve">3</text>
    </g>
    <g fill="rgb(183,204,117)" text-rendering="geometricPrecision" shape-rendering="geometricPrecision" transform="matrix(1,0,0,1,-528,-435)" stroke="rgb(183,204,117)">
      <rect x="740.5875" width="30" height="30" y="481.9098" clip-path="url(#clipPath2)" stroke="none"/>
    </g>
    <g text-rendering="geometricPrecision" stroke-miterlimit="1.45" shape-rendering="geometricPrecision" transform="matrix(1,0,0,1,-528,-435)" stroke-linecap="butt">
      <rect fill="none" x="740.5875" width="30" height="30" y="481.9098" clip-path="url(#clipPath2)"/>
      <text x="752.4812" y="500.9276" clip-path="url(#clipPath2)" fill="white" font-family="'Fira Sans Light'" stroke="none" xml:space="preserve">4</text>
    </g>
    <g fill="rgb(100,139,191)" text-rendering="geometricPrecision" shape-rendering="geometricPrecision" transform="matrix(1,0,0,1,-528,-435)" stroke="rgb(100,139,191)">
      <rect x="528.3283" width="30" height="30" y="481.9098" clip-path="url(#clipPath2)" stroke="none"/>
    </g>
    <g text-rendering="geometricPrecision" stroke-miterlimit="1.45" shape-rendering="geometricPrecision" transform="matrix(1,0,0,1,-528,-435)" stroke-linecap="butt">
      <rect fill="none" x="528.3283" width="30" height="30" y="481.9098" clip-path="url(#clipPath2)"/>
      <text x="540.4079" y="500.9276" clip-path="url(#clipPath2)" fill="white" font-family="'Fira Sans Light'" stroke="none" xml:space="preserve">5</text>
    </g>
  </g>
</svg>
