<?xml version="1.0" encoding="UTF-8"?><svg xmlns="http://www.w3.org/2000/svg" xmlns:xlink="http://www.w3.org/1999/xlink" fill-opacity="1" color-rendering="auto" color-interpolation="auto" text-rendering="auto" stroke="black" stroke-linecap="square" width="323" stroke-miterlimit="10" shape-rendering="auto" stroke-opacity="1" fill="black" stroke-dasharray="none" font-weight="normal" stroke-width="1" height="98" font-family="'Dialog'" font-style="normal" stroke-linejoin="miter" font-size="12px" stroke-dashoffset="0" image-rendering="auto">
  <!--Generated by ySVG 2.6-->
  <defs id="genericDefs"/>
  <g>
    <defs id="defs1">
      <clipPath clipPathUnits="userSpaceOnUse" id="clipPath1">
        <path d="M0 0 L323 0 L323 98 L0 98 L0 0 Z"/>
      </clipPath>
      <clipPath clipPathUnits="userSpaceOnUse" id="clipPath2">
        <path d="M558 490 L881 490 L881 588 L558 588 L558 490 Z"/>
      </clipPath>
    </defs>
    <g fill="rgb(205,164,182)" text-rendering="geometricPrecision" shape-rendering="geometricPrecision" transform="matrix(1,0,0,1,-558,-490)" stroke="rgb(205,164,182)">
      <rect x="683.5603" width="30" height="30" y="512" clip-path="url(#clipPath2)" stroke="none"/>
    </g>
    <g text-rendering="geometricPrecision" stroke-miterlimit="1.45" shape-rendering="geometricPrecision" transform="matrix(1,0,0,1,-558,-490)" stroke-linecap="butt">
      <rect fill="none" x="683.5603" width="30" height="30" y="512" clip-path="url(#clipPath2)"/>
      <text x="695.2621" y="531.0178" clip-path="url(#clipPath2)" fill="white" font-family="'Fira Sans Light'" stroke="none" xml:space="preserve">0</text>
    </g>
    <g fill="rgb(230,82,106)" text-rendering="geometricPrecision" shape-rendering="geometricPrecision" transform="matrix(1,0,0,1,-558,-490)" stroke="rgb(230,82,106)">
      <rect x="768.464" width="30" height="30" y="512" clip-path="url(#clipPath2)" stroke="none"/>
    </g>
    <g text-rendering="geometricPrecision" stroke-miterlimit="1.45" shape-rendering="geometricPrecision" transform="matrix(1,0,0,1,-558,-490)" stroke-linecap="butt">
      <rect fill="none" x="768.464" width="30" height="30" y="512" clip-path="url(#clipPath2)"/>
      <text x="780.9874" y="531.0178" clip-path="url(#clipPath2)" fill="white" font-family="'Fira Sans Light'" stroke="none" xml:space="preserve">1</text>
    </g>
    <g fill="rgb(253,170,125)" text-rendering="geometricPrecision" shape-rendering="geometricPrecision" transform="matrix(1,0,0,1,-558,-490)" stroke="rgb(253,170,125)">
      <rect x="641.1085" width="30" height="30" y="512" clip-path="url(#clipPath2)" stroke="none"/>
    </g>
    <g text-rendering="geometricPrecision" stroke-miterlimit="1.45" shape-rendering="geometricPrecision" transform="matrix(1,0,0,1,-558,-490)" stroke-linecap="butt">
      <rect fill="none" x="641.1085" width="30" height="30" y="512" clip-path="url(#clipPath2)"/>
      <text x="653.2361" y="531.0178" clip-path="url(#clipPath2)" fill="white" font-family="'Fira Sans Light'" stroke="none" xml:space="preserve">2</text>
    </g>
    <g fill="rgb(232,217,114)" text-rendering="geometricPrecision" shape-rendering="geometricPrecision" transform="matrix(1,0,0,1,-558,-490)" stroke="rgb(232,217,114)">
      <rect x="726.0122" width="30" height="30" y="512" clip-path="url(#clipPath2)" stroke="none"/>
    </g>
    <g text-rendering="geometricPrecision" stroke-miterlimit="1.45" shape-rendering="geometricPrecision" transform="matrix(1,0,0,1,-558,-490)" stroke-linecap="butt">
      <rect fill="none" x="726.0122" width="30" height="30" y="512" clip-path="url(#clipPath2)"/>
      <text x="738.0978" y="531.0178" clip-path="url(#clipPath2)" fill="white" font-family="'Fira Sans Light'" stroke="none" xml:space="preserve">3</text>
    </g>
    <g fill="rgb(183,204,117)" text-rendering="geometricPrecision" shape-rendering="geometricPrecision" transform="matrix(1,0,0,1,-558,-490)" stroke="rgb(183,204,117)">
      <rect x="810.9158" width="30" height="30" y="512" clip-path="url(#clipPath2)" stroke="none"/>
    </g>
    <g text-rendering="geometricPrecision" stroke-miterlimit="1.45" shape-rendering="geometricPrecision" transform="matrix(1,0,0,1,-558,-490)" stroke-linecap="butt">
      <rect fill="none" x="810.9158" width="30" height="30" y="512" clip-path="url(#clipPath2)"/>
      <text x="822.8096" y="531.0178" clip-path="url(#clipPath2)" fill="white" font-family="'Fira Sans Light'" stroke="none" xml:space="preserve">4</text>
    </g>
    <g fill="rgb(100,139,191)" text-rendering="geometricPrecision" shape-rendering="geometricPrecision" transform="matrix(1,0,0,1,-558,-490)" stroke="rgb(100,139,191)">
      <rect x="598.6566" width="30" height="30" y="512" clip-path="url(#clipPath2)" stroke="none"/>
    </g>
    <g text-rendering="geometricPrecision" stroke-miterlimit="1.45" shape-rendering="geometricPrecision" transform="matrix(1,0,0,1,-558,-490)" stroke-linecap="butt">
      <rect fill="none" x="598.6566" width="30" height="30" y="512" clip-path="url(#clipPath2)"/>
      <text x="610.7363" y="531.0178" clip-path="url(#clipPath2)" fill="white" font-family="'Fira Sans Light'" stroke="none" xml:space="preserve">5</text>
    </g>
    <g fill="rgb(205,164,182)" text-rendering="geometricPrecision" shape-rendering="geometricPrecision" transform="matrix(1,0,0,1,-558,-490)" stroke="rgb(205,164,182)">
      <rect x="683.5603" width="30" height="30" y="557.9098" clip-path="url(#clipPath2)" stroke="none"/>
    </g>
    <g text-rendering="geometricPrecision" stroke-miterlimit="1.45" shape-rendering="geometricPrecision" transform="matrix(1,0,0,1,-558,-490)" stroke-linecap="butt">
      <rect fill="none" x="683.5603" width="30" height="30" y="557.9098" clip-path="url(#clipPath2)"/>
      <text x="695.2621" y="576.9276" clip-path="url(#clipPath2)" fill="white" font-family="'Fira Sans Light'" stroke="none" xml:space="preserve">0</text>
    </g>
    <g fill="rgb(230,82,106)" text-rendering="geometricPrecision" shape-rendering="geometricPrecision" transform="matrix(1,0,0,1,-558,-490)" stroke="rgb(230,82,106)">
      <rect x="768.464" width="30" height="30" y="557.9098" clip-path="url(#clipPath2)" stroke="none"/>
    </g>
    <g text-rendering="geometricPrecision" stroke-miterlimit="1.45" shape-rendering="geometricPrecision" transform="matrix(1,0,0,1,-558,-490)" stroke-linecap="butt">
      <rect fill="none" x="768.464" width="30" height="30" y="557.9098" clip-path="url(#clipPath2)"/>
      <text x="780.9874" y="576.9276" clip-path="url(#clipPath2)" fill="white" font-family="'Fira Sans Light'" stroke="none" xml:space="preserve">1</text>
    </g>
    <g fill="rgb(253,170,125)" text-rendering="geometricPrecision" shape-rendering="geometricPrecision" transform="matrix(1,0,0,1,-558,-490)" stroke="rgb(253,170,125)">
      <rect x="641.1085" width="30" height="30" y="557.9098" clip-path="url(#clipPath2)" stroke="none"/>
    </g>
    <g text-rendering="geometricPrecision" stroke-miterlimit="1.45" shape-rendering="geometricPrecision" transform="matrix(1,0,0,1,-558,-490)" stroke-linecap="butt">
      <rect fill="none" x="641.1085" width="30" height="30" y="557.9098" clip-path="url(#clipPath2)"/>
      <text x="653.2361" y="576.9276" clip-path="url(#clipPath2)" fill="white" font-family="'Fira Sans Light'" stroke="none" xml:space="preserve">2</text>
    </g>
    <g fill="rgb(232,217,114)" text-rendering="geometricPrecision" shape-rendering="geometricPrecision" transform="matrix(1,0,0,1,-558,-490)" stroke="rgb(232,217,114)">
      <rect x="726.0122" width="30" height="30" y="557.9098" clip-path="url(#clipPath2)" stroke="none"/>
    </g>
    <g text-rendering="geometricPrecision" stroke-miterlimit="1.45" shape-rendering="geometricPrecision" transform="matrix(1,0,0,1,-558,-490)" stroke-linecap="butt">
      <rect fill="none" x="726.0122" width="30" height="30" y="557.9098" clip-path="url(#clipPath2)"/>
      <text x="738.0978" y="576.9276" clip-path="url(#clipPath2)" fill="white" font-family="'Fira Sans Light'" stroke="none" xml:space="preserve">3</text>
    </g>
    <g fill="rgb(183,204,117)" text-rendering="geometricPrecision" shape-rendering="geometricPrecision" transform="matrix(1,0,0,1,-558,-490)" stroke="rgb(183,204,117)">
      <rect x="810.9158" width="30" height="30" y="557.9098" clip-path="url(#clipPath2)" stroke="none"/>
    </g>
    <g text-rendering="geometricPrecision" stroke-miterlimit="1.45" shape-rendering="geometricPrecision" transform="matrix(1,0,0,1,-558,-490)" stroke-linecap="butt">
      <rect fill="none" x="810.9158" width="30" height="30" y="557.9098" clip-path="url(#clipPath2)"/>
      <text x="822.8096" y="576.9276" clip-path="url(#clipPath2)" fill="white" font-family="'Fira Sans Light'" stroke="none" xml:space="preserve">4</text>
    </g>
    <g fill="rgb(100,139,191)" text-rendering="geometricPrecision" shape-rendering="geometricPrecision" transform="matrix(1,0,0,1,-558,-490)" stroke="rgb(100,139,191)">
      <rect x="598.6566" width="30" height="30" y="557.9098" clip-path="url(#clipPath2)" stroke="none"/>
    </g>
    <g text-rendering="geometricPrecision" stroke-miterlimit="1.45" shape-rendering="geometricPrecision" transform="matrix(1,0,0,1,-558,-490)" stroke-linecap="butt">
      <rect fill="none" x="598.6566" width="30" height="30" y="557.9098" clip-path="url(#clipPath2)"/>
      <text x="610.7363" y="576.9276" clip-path="url(#clipPath2)" fill="white" font-family="'Fira Sans Light'" stroke="none" xml:space="preserve">5</text>
      <path fill="none" d="M671.1085 527 L679.5603 527" clip-path="url(#clipPath2)" stroke="silver"/>
      <path fill="silver" d="M683.5603 527 L675.5603 521 L678.5603 527 L675.5603 533 Z" clip-path="url(#clipPath2)" stroke="none"/>
      <path fill="none" d="M713.5603 527 L722.0121 527" clip-path="url(#clipPath2)" stroke="silver"/>
      <path fill="silver" d="M726.0121 527 L718.0121 521 L721.0121 527 L718.0121 533 Z" clip-path="url(#clipPath2)" stroke="none"/>
      <path fill="none" d="M756.0121 527 L764.464 527" clip-path="url(#clipPath2)" stroke="silver"/>
      <path fill="silver" d="M768.464 527 L760.464 521 L763.464 527 L760.464 533 Z" clip-path="url(#clipPath2)" stroke="none"/>
      <path fill="none" d="M798.464 527 L806.9158 527" clip-path="url(#clipPath2)" stroke="silver"/>
      <path fill="silver" d="M810.9158 527 L802.9158 521 L805.9158 527 L802.9158 533 Z" clip-path="url(#clipPath2)" stroke="none"/>
      <path fill="none" d="M840.9084 526.7245 L855.8427 526.45 L861.5815 526.0926 L866.5551 525.2453 L870.7636 523.9082 L874.2069 522.0812 L876.885 519.7644 L878.798 516.9578 L879.9457 513.6613 L880.3283 509.8749 L880.3283 506.2915 L879.7626 504.3389 L878.0656 502.5122 L875.2372 500.8115 L871.2775 499.2368 L859.9639 496.4653 L844.1249 494.1977 L823.7605 492.434 L798.8707 491.1742 L769.4554 490.4183 L735.5147 490.1664 L703.3339 490.1664 L669.3932 490.4183 L639.978 491.1742 L615.0881 492.434 L594.7238 494.1977 L578.8848 496.4653 L567.5712 499.2368 L563.6115 500.8115 L560.783 502.5122 L559.086 504.3389 L558.5203 506.2915 L558.5203 509.8749 L558.908 513.6613 L560.071 516.9578 L562.0094 519.7644 L564.7231 522.0812 L568.2123 523.9082 L572.4767 525.2453 L577.5165 526.0926 L583.3317 526.45 L594.6429 526.6552" clip-path="url(#clipPath2)" stroke="silver"/>
      <path fill="silver" d="M598.6422 526.7277 L590.7523 520.5836 L593.643 526.637 L590.5348 532.5817 Z" clip-path="url(#clipPath2)" stroke="none"/>
      <path fill="none" d="M628.6566 527 L637.1085 527" clip-path="url(#clipPath2)" stroke="silver"/>
      <path fill="silver" d="M641.1085 527 L633.1085 521 L636.1085 527 L633.1085 533 Z" clip-path="url(#clipPath2)" stroke="none"/>
    </g>
  </g>
</svg>
