<?xml version="1.0" encoding="UTF-8"?><svg xmlns="http://www.w3.org/2000/svg" xmlns:xlink="http://www.w3.org/1999/xlink" fill-opacity="1" color-rendering="auto" color-interpolation="auto" text-rendering="auto" stroke="black" stroke-linecap="square" width="243" stroke-miterlimit="10" shape-rendering="auto" stroke-opacity="1" fill="black" stroke-dasharray="none" font-weight="normal" stroke-width="1" height="149" font-family="'Dialog'" font-style="normal" stroke-linejoin="miter" font-size="12px" stroke-dashoffset="0" image-rendering="auto">
  <!--Generated by ySVG 2.6-->
  <defs id="genericDefs"/>
  <g>
    <defs id="defs1">
      <clipPath clipPathUnits="userSpaceOnUse" id="clipPath1">
        <path d="M0 0 L243 0 L243 149 L0 149 L0 0 Z"/>
      </clipPath>
      <clipPath clipPathUnits="userSpaceOnUse" id="clipPath2">
        <path d="M558 466 L801 466 L801 615 L558 615 L558 466 Z"/>
      </clipPath>
    </defs>
    <g fill="rgb(205,164,182)" text-rendering="geometricPrecision" shape-rendering="geometricPrecision" transform="matrix(1,0,0,1,-558,-466)" stroke="rgb(205,164,182)">
      <rect x="686.0122" width="30" height="30" y="467" clip-path="url(#clipPath2)" stroke="none"/>
    </g>
    <g text-rendering="geometricPrecision" stroke-miterlimit="1.45" shape-rendering="geometricPrecision" transform="matrix(1,0,0,1,-558,-466)" stroke-linecap="butt">
      <rect fill="none" x="686.0122" width="30" height="30" y="467" clip-path="url(#clipPath2)"/>
      <text x="697.714" y="486.0178" clip-path="url(#clipPath2)" fill="white" font-family="'Fira Sans Light'" stroke="none" xml:space="preserve">0</text>
    </g>
    <g fill="rgb(230,82,106)" text-rendering="geometricPrecision" shape-rendering="geometricPrecision" transform="matrix(1,0,0,1,-558,-466)" stroke="rgb(230,82,106)">
      <rect x="770.9158" width="30" height="30" y="467" clip-path="url(#clipPath2)" stroke="none"/>
    </g>
    <g text-rendering="geometricPrecision" stroke-miterlimit="1.45" shape-rendering="geometricPrecision" transform="matrix(1,0,0,1,-558,-466)" stroke-linecap="butt">
      <rect fill="none" x="770.9158" width="30" height="30" y="467" clip-path="url(#clipPath2)"/>
      <text x="783.4392" y="486.0178" clip-path="url(#clipPath2)" fill="white" font-family="'Fira Sans Light'" stroke="none" xml:space="preserve">1</text>
    </g>
    <g fill="rgb(253,170,125)" text-rendering="geometricPrecision" shape-rendering="geometricPrecision" transform="matrix(1,0,0,1,-558,-466)" stroke="rgb(253,170,125)">
      <rect x="643.5603" width="30" height="30" y="467" clip-path="url(#clipPath2)" stroke="none"/>
    </g>
    <g text-rendering="geometricPrecision" stroke-miterlimit="1.45" shape-rendering="geometricPrecision" transform="matrix(1,0,0,1,-558,-466)" stroke-linecap="butt">
      <rect fill="none" x="643.5603" width="30" height="30" y="467" clip-path="url(#clipPath2)"/>
      <text x="655.6879" y="486.0178" clip-path="url(#clipPath2)" fill="white" font-family="'Fira Sans Light'" stroke="none" xml:space="preserve">2</text>
    </g>
    <g fill="rgb(232,217,114)" text-rendering="geometricPrecision" shape-rendering="geometricPrecision" transform="matrix(1,0,0,1,-558,-466)" stroke="rgb(232,217,114)">
      <rect x="728.464" width="30" height="30" y="467" clip-path="url(#clipPath2)" stroke="none"/>
    </g>
    <g text-rendering="geometricPrecision" stroke-miterlimit="1.45" shape-rendering="geometricPrecision" transform="matrix(1,0,0,1,-558,-466)" stroke-linecap="butt">
      <rect fill="none" x="728.464" width="30" height="30" y="467" clip-path="url(#clipPath2)"/>
      <text x="740.5496" y="486.0178" clip-path="url(#clipPath2)" fill="white" font-family="'Fira Sans Light'" stroke="none" xml:space="preserve">3</text>
    </g>
    <g fill="rgb(183,204,117)" text-rendering="geometricPrecision" shape-rendering="geometricPrecision" transform="matrix(1,0,0,1,-558,-466)" stroke="rgb(183,204,117)">
      <rect x="558.6566" width="30" height="30" y="467" clip-path="url(#clipPath2)" stroke="none"/>
    </g>
    <g text-rendering="geometricPrecision" stroke-miterlimit="1.45" shape-rendering="geometricPrecision" transform="matrix(1,0,0,1,-558,-466)" stroke-linecap="butt">
      <rect fill="none" x="558.6566" width="30" height="30" y="467" clip-path="url(#clipPath2)"/>
      <text x="570.5504" y="486.0178" clip-path="url(#clipPath2)" fill="white" font-family="'Fira Sans Light'" stroke="none" xml:space="preserve">4</text>
    </g>
    <g fill="rgb(100,139,191)" text-rendering="geometricPrecision" shape-rendering="geometricPrecision" transform="matrix(1,0,0,1,-558,-466)" stroke="rgb(100,139,191)">
      <rect x="601.1085" width="30" height="30" y="467" clip-path="url(#clipPath2)" stroke="none"/>
    </g>
    <g text-rendering="geometricPrecision" stroke-miterlimit="1.45" shape-rendering="geometricPrecision" transform="matrix(1,0,0,1,-558,-466)" stroke-linecap="butt">
      <rect fill="none" x="601.1085" width="30" height="30" y="467" clip-path="url(#clipPath2)"/>
      <text x="613.1881" y="486.0178" clip-path="url(#clipPath2)" fill="white" font-family="'Fira Sans Light'" stroke="none" xml:space="preserve">5</text>
    </g>
    <g fill="rgb(205,164,182)" text-rendering="geometricPrecision" shape-rendering="geometricPrecision" transform="matrix(1,0,0,1,-558,-466)" stroke="rgb(205,164,182)">
      <rect x="643.5603" width="30" height="30" y="495" clip-path="url(#clipPath2)" stroke="none"/>
    </g>
    <g text-rendering="geometricPrecision" stroke-miterlimit="1.45" shape-rendering="geometricPrecision" transform="matrix(1,0,0,1,-558,-466)" stroke-linecap="butt">
      <rect fill="none" x="643.5603" width="30" height="30" y="495" clip-path="url(#clipPath2)"/>
      <text x="655.2621" y="514.0178" clip-path="url(#clipPath2)" fill="white" font-family="'Fira Sans Light'" stroke="none" xml:space="preserve">0</text>
    </g>
    <g fill="rgb(230,82,106)" text-rendering="geometricPrecision" shape-rendering="geometricPrecision" transform="matrix(1,0,0,1,-558,-466)" stroke="rgb(230,82,106)">
      <rect x="728.464" width="30" height="30" y="495" clip-path="url(#clipPath2)" stroke="none"/>
    </g>
    <g text-rendering="geometricPrecision" stroke-miterlimit="1.45" shape-rendering="geometricPrecision" transform="matrix(1,0,0,1,-558,-466)" stroke-linecap="butt">
      <rect fill="none" x="728.464" width="30" height="30" y="495" clip-path="url(#clipPath2)"/>
      <text x="740.9874" y="514.0178" clip-path="url(#clipPath2)" fill="white" font-family="'Fira Sans Light'" stroke="none" xml:space="preserve">1</text>
    </g>
    <g fill="rgb(253,170,125)" text-rendering="geometricPrecision" shape-rendering="geometricPrecision" transform="matrix(1,0,0,1,-558,-466)" stroke="rgb(253,170,125)">
      <rect x="601.1085" width="30" height="30" y="495" clip-path="url(#clipPath2)" stroke="none"/>
    </g>
    <g text-rendering="geometricPrecision" stroke-miterlimit="1.45" shape-rendering="geometricPrecision" transform="matrix(1,0,0,1,-558,-466)" stroke-linecap="butt">
      <rect fill="none" x="601.1085" width="30" height="30" y="495" clip-path="url(#clipPath2)"/>
      <text x="613.2361" y="514.0178" clip-path="url(#clipPath2)" fill="white" font-family="'Fira Sans Light'" stroke="none" xml:space="preserve">2</text>
    </g>
    <g fill="rgb(232,217,114)" text-rendering="geometricPrecision" shape-rendering="geometricPrecision" transform="matrix(1,0,0,1,-558,-466)" stroke="rgb(232,217,114)">
      <rect x="686.0122" width="30" height="30" y="495" clip-path="url(#clipPath2)" stroke="none"/>
    </g>
    <g text-rendering="geometricPrecision" stroke-miterlimit="1.45" shape-rendering="geometricPrecision" transform="matrix(1,0,0,1,-558,-466)" stroke-linecap="butt">
      <rect fill="none" x="686.0122" width="30" height="30" y="495" clip-path="url(#clipPath2)"/>
      <text x="698.0978" y="514.0178" clip-path="url(#clipPath2)" fill="white" font-family="'Fira Sans Light'" stroke="none" xml:space="preserve">3</text>
    </g>
    <g fill="rgb(183,204,117)" text-rendering="geometricPrecision" shape-rendering="geometricPrecision" transform="matrix(1,0,0,1,-558,-466)" stroke="rgb(183,204,117)">
      <rect x="770.9158" width="30" height="30" y="495" clip-path="url(#clipPath2)" stroke="none"/>
    </g>
    <g text-rendering="geometricPrecision" stroke-miterlimit="1.45" shape-rendering="geometricPrecision" transform="matrix(1,0,0,1,-558,-466)" stroke-linecap="butt">
      <rect fill="none" x="770.9158" width="30" height="30" y="495" clip-path="url(#clipPath2)"/>
      <text x="782.8096" y="514.0178" clip-path="url(#clipPath2)" fill="white" font-family="'Fira Sans Light'" stroke="none" xml:space="preserve">4</text>
    </g>
    <g fill="rgb(100,139,191)" text-rendering="geometricPrecision" shape-rendering="geometricPrecision" transform="matrix(1,0,0,1,-558,-466)" stroke="rgb(100,139,191)">
      <rect x="558.6566" width="30" height="30" y="495" clip-path="url(#clipPath2)" stroke="none"/>
    </g>
    <g text-rendering="geometricPrecision" stroke-miterlimit="1.45" shape-rendering="geometricPrecision" transform="matrix(1,0,0,1,-558,-466)" stroke-linecap="butt">
      <rect fill="none" x="558.6566" width="30" height="30" y="495" clip-path="url(#clipPath2)"/>
      <text x="570.7363" y="514.0178" clip-path="url(#clipPath2)" fill="white" font-family="'Fira Sans Light'" stroke="none" xml:space="preserve">5</text>
    </g>
    <g fill="rgb(244,237,214)" text-rendering="geometricPrecision" shape-rendering="geometricPrecision" transform="matrix(1,0,0,1,-558,-466)" stroke="rgb(244,237,214)">
      <rect x="588.6566" width="30" height="30" y="585" clip-path="url(#clipPath2)" stroke="none"/>
    </g>
    <g text-rendering="geometricPrecision" stroke-miterlimit="1.45" shape-rendering="geometricPrecision" transform="matrix(1,0,0,1,-558,-466)" stroke-linecap="butt">
      <rect fill="none" x="588.6566" width="30" height="30" y="585" clip-path="url(#clipPath2)"/>
    </g>
    <g fill="rgb(244,237,214)" text-rendering="geometricPrecision" shape-rendering="geometricPrecision" transform="matrix(1,0,0,1,-558,-466)" stroke="rgb(244,237,214)">
      <rect x="618.6566" width="30" height="30" y="585" clip-path="url(#clipPath2)" stroke="none"/>
    </g>
    <g text-rendering="geometricPrecision" stroke-miterlimit="1.45" shape-rendering="geometricPrecision" transform="matrix(1,0,0,1,-558,-466)" stroke-linecap="butt">
      <rect fill="none" x="618.6566" width="30" height="30" y="585" clip-path="url(#clipPath2)"/>
    </g>
    <g fill="rgb(244,237,214)" text-rendering="geometricPrecision" shape-rendering="geometricPrecision" transform="matrix(1,0,0,1,-558,-466)" stroke="rgb(244,237,214)">
      <rect x="648.6566" width="30" height="30" y="585" clip-path="url(#clipPath2)" stroke="none"/>
    </g>
    <g text-rendering="geometricPrecision" stroke-miterlimit="1.45" shape-rendering="geometricPrecision" transform="matrix(1,0,0,1,-558,-466)" stroke-linecap="butt">
      <rect fill="none" x="648.6566" width="30" height="30" y="585" clip-path="url(#clipPath2)"/>
    </g>
    <g fill="rgb(244,237,214)" text-rendering="geometricPrecision" shape-rendering="geometricPrecision" transform="matrix(1,0,0,1,-558,-466)" stroke="rgb(244,237,214)">
      <rect x="678.6566" width="30" height="30" y="585" clip-path="url(#clipPath2)" stroke="none"/>
    </g>
    <g text-rendering="geometricPrecision" stroke-miterlimit="1.45" shape-rendering="geometricPrecision" transform="matrix(1,0,0,1,-558,-466)" stroke-linecap="butt">
      <rect fill="none" x="678.6566" width="30" height="30" y="585" clip-path="url(#clipPath2)"/>
    </g>
    <g fill="rgb(244,237,214)" text-rendering="geometricPrecision" shape-rendering="geometricPrecision" transform="matrix(1,0,0,1,-558,-466)" stroke="rgb(244,237,214)">
      <rect x="708.6566" width="30" height="30" y="585" clip-path="url(#clipPath2)" stroke="none"/>
    </g>
    <g text-rendering="geometricPrecision" stroke-miterlimit="1.45" shape-rendering="geometricPrecision" transform="matrix(1,0,0,1,-558,-466)" stroke-linecap="butt">
      <rect fill="none" x="708.6566" width="30" height="30" y="585" clip-path="url(#clipPath2)"/>
    </g>
    <g fill="rgb(244,237,214)" text-rendering="geometricPrecision" shape-rendering="geometricPrecision" transform="matrix(1,0,0,1,-558,-466)" stroke="rgb(244,237,214)">
      <rect x="738.6566" width="30" height="30" y="585" clip-path="url(#clipPath2)" stroke="none"/>
    </g>
    <g text-rendering="geometricPrecision" stroke-miterlimit="1.45" shape-rendering="geometricPrecision" transform="matrix(1,0,0,1,-558,-466)" stroke-linecap="butt">
      <rect fill="none" x="738.6566" width="30" height="30" y="585" clip-path="url(#clipPath2)"/>
      <text x="600.3585" xml:space="preserve" y="574.0178" clip-path="url(#clipPath2)" font-family="'Fira Sans Light'" stroke="none">0</text>
      <text x="631.18" xml:space="preserve" y="574.0178" clip-path="url(#clipPath2)" font-family="'Fira Sans Light'" stroke="none">1</text>
      <text x="660.7842" xml:space="preserve" y="574.0178" clip-path="url(#clipPath2)" font-family="'Fira Sans Light'" stroke="none">2</text>
      <text x="690.7422" xml:space="preserve" y="574.0178" clip-path="url(#clipPath2)" font-family="'Fira Sans Light'" stroke="none">3</text>
      <text x="720.5504" xml:space="preserve" y="574.0178" clip-path="url(#clipPath2)" font-family="'Fira Sans Light'" stroke="none">4</text>
      <text x="750.7363" xml:space="preserve" y="574.0178" clip-path="url(#clipPath2)" font-family="'Fira Sans Light'" stroke="none">5</text>
    </g>
  </g>
</svg>
