<?xml version="1.0" encoding="UTF-8"?><svg xmlns="http://www.w3.org/2000/svg" xmlns:xlink="http://www.w3.org/1999/xlink" fill-opacity="1" color-rendering="auto" color-interpolation="auto" text-rendering="auto" stroke="black" stroke-linecap="square" width="243" stroke-miterlimit="10" shape-rendering="auto" stroke-opacity="1" fill="black" stroke-dasharray="none" font-weight="normal" stroke-width="1" height="149" font-family="'Dialog'" font-style="normal" stroke-linejoin="miter" font-size="12px" stroke-dashoffset="0" image-rendering="auto">
  <!--Generated by ySVG 2.6-->
  <defs id="genericDefs"/>
  <g>
    <defs id="defs1">
      <clipPath clipPathUnits="userSpaceOnUse" id="clipPath1">
        <path d="M0 0 L243 0 L243 149 L0 149 L0 0 Z"/>
      </clipPath>
      <clipPath clipPathUnits="userSpaceOnUse" id="clipPath2">
        <path d="M589 497 L832 497 L832 646 L589 646 L589 497 Z"/>
      </clipPath>
    </defs>
    <g fill="rgb(205,164,182)" text-rendering="geometricPrecision" shape-rendering="geometricPrecision" transform="matrix(1,0,0,1,-589,-497)" stroke="rgb(205,164,182)">
      <rect x="716.6688" width="30" height="30" y="498" clip-path="url(#clipPath2)" stroke="none"/>
    </g>
    <g text-rendering="geometricPrecision" stroke-miterlimit="1.45" shape-rendering="geometricPrecision" transform="matrix(1,0,0,1,-589,-497)" stroke-linecap="butt">
      <rect fill="none" x="716.6688" width="30" height="30" y="498" clip-path="url(#clipPath2)"/>
      <text x="728.3706" y="517.0178" clip-path="url(#clipPath2)" fill="white" font-family="'Fira Sans Light'" stroke="none" xml:space="preserve">0</text>
    </g>
    <g fill="rgb(230,82,106)" text-rendering="geometricPrecision" shape-rendering="geometricPrecision" transform="matrix(1,0,0,1,-589,-497)" stroke="rgb(230,82,106)">
      <rect x="801.5725" width="30" height="30" y="498" clip-path="url(#clipPath2)" stroke="none"/>
    </g>
    <g text-rendering="geometricPrecision" stroke-miterlimit="1.45" shape-rendering="geometricPrecision" transform="matrix(1,0,0,1,-589,-497)" stroke-linecap="butt">
      <rect fill="none" x="801.5725" width="30" height="30" y="498" clip-path="url(#clipPath2)"/>
      <text x="814.0958" y="517.0178" clip-path="url(#clipPath2)" fill="white" font-family="'Fira Sans Light'" stroke="none" xml:space="preserve">1</text>
    </g>
    <g fill="rgb(253,170,125)" text-rendering="geometricPrecision" shape-rendering="geometricPrecision" transform="matrix(1,0,0,1,-589,-497)" stroke="rgb(253,170,125)">
      <rect x="674.217" width="30" height="30" y="498" clip-path="url(#clipPath2)" stroke="none"/>
    </g>
    <g text-rendering="geometricPrecision" stroke-miterlimit="1.45" shape-rendering="geometricPrecision" transform="matrix(1,0,0,1,-589,-497)" stroke-linecap="butt">
      <rect fill="none" x="674.217" width="30" height="30" y="498" clip-path="url(#clipPath2)"/>
      <text x="686.3445" y="517.0178" clip-path="url(#clipPath2)" fill="white" font-family="'Fira Sans Light'" stroke="none" xml:space="preserve">2</text>
    </g>
    <g fill="rgb(232,217,114)" text-rendering="geometricPrecision" shape-rendering="geometricPrecision" transform="matrix(1,0,0,1,-589,-497)" stroke="rgb(232,217,114)">
      <rect x="759.1206" width="30" height="30" y="498" clip-path="url(#clipPath2)" stroke="none"/>
    </g>
    <g text-rendering="geometricPrecision" stroke-miterlimit="1.45" shape-rendering="geometricPrecision" transform="matrix(1,0,0,1,-589,-497)" stroke-linecap="butt">
      <rect fill="none" x="759.1206" width="30" height="30" y="498" clip-path="url(#clipPath2)"/>
      <text x="771.2062" y="517.0178" clip-path="url(#clipPath2)" fill="white" font-family="'Fira Sans Light'" stroke="none" xml:space="preserve">3</text>
    </g>
    <g fill="rgb(183,204,117)" text-rendering="geometricPrecision" shape-rendering="geometricPrecision" transform="matrix(1,0,0,1,-589,-497)" stroke="rgb(183,204,117)">
      <rect x="589.3133" width="30" height="30" y="498" clip-path="url(#clipPath2)" stroke="none"/>
    </g>
    <g text-rendering="geometricPrecision" stroke-miterlimit="1.45" shape-rendering="geometricPrecision" transform="matrix(1,0,0,1,-589,-497)" stroke-linecap="butt">
      <rect fill="none" x="589.3133" width="30" height="30" y="498" clip-path="url(#clipPath2)"/>
      <text x="601.207" y="517.0178" clip-path="url(#clipPath2)" fill="white" font-family="'Fira Sans Light'" stroke="none" xml:space="preserve">4</text>
    </g>
    <g fill="rgb(100,139,191)" text-rendering="geometricPrecision" shape-rendering="geometricPrecision" transform="matrix(1,0,0,1,-589,-497)" stroke="rgb(100,139,191)">
      <rect x="631.7651" width="30" height="30" y="498" clip-path="url(#clipPath2)" stroke="none"/>
    </g>
    <g text-rendering="geometricPrecision" stroke-miterlimit="1.45" shape-rendering="geometricPrecision" transform="matrix(1,0,0,1,-589,-497)" stroke-linecap="butt">
      <rect fill="none" x="631.7651" width="30" height="30" y="498" clip-path="url(#clipPath2)"/>
      <text x="643.8447" y="517.0178" clip-path="url(#clipPath2)" fill="white" font-family="'Fira Sans Light'" stroke="none" xml:space="preserve">5</text>
    </g>
    <g fill="rgb(205,164,182)" text-rendering="geometricPrecision" shape-rendering="geometricPrecision" transform="matrix(1,0,0,1,-589,-497)" stroke="rgb(205,164,182)">
      <rect x="674.217" width="30" height="30" y="526" clip-path="url(#clipPath2)" stroke="none"/>
    </g>
    <g text-rendering="geometricPrecision" stroke-miterlimit="1.45" shape-rendering="geometricPrecision" transform="matrix(1,0,0,1,-589,-497)" stroke-linecap="butt">
      <rect fill="none" x="674.217" width="30" height="30" y="526" clip-path="url(#clipPath2)"/>
      <text x="685.9188" y="545.0178" clip-path="url(#clipPath2)" fill="white" font-family="'Fira Sans Light'" stroke="none" xml:space="preserve">0</text>
    </g>
    <g fill="rgb(230,82,106)" text-rendering="geometricPrecision" shape-rendering="geometricPrecision" transform="matrix(1,0,0,1,-589,-497)" stroke="rgb(230,82,106)">
      <rect x="759.1206" width="30" height="30" y="526" clip-path="url(#clipPath2)" stroke="none"/>
    </g>
    <g text-rendering="geometricPrecision" stroke-miterlimit="1.45" shape-rendering="geometricPrecision" transform="matrix(1,0,0,1,-589,-497)" stroke-linecap="butt">
      <rect fill="none" x="759.1206" width="30" height="30" y="526" clip-path="url(#clipPath2)"/>
      <text x="771.644" y="545.0178" clip-path="url(#clipPath2)" fill="white" font-family="'Fira Sans Light'" stroke="none" xml:space="preserve">1</text>
    </g>
    <g fill="rgb(253,170,125)" text-rendering="geometricPrecision" shape-rendering="geometricPrecision" transform="matrix(1,0,0,1,-589,-497)" stroke="rgb(253,170,125)">
      <rect x="631.7651" width="30" height="30" y="526" clip-path="url(#clipPath2)" stroke="none"/>
    </g>
    <g text-rendering="geometricPrecision" stroke-miterlimit="1.45" shape-rendering="geometricPrecision" transform="matrix(1,0,0,1,-589,-497)" stroke-linecap="butt">
      <rect fill="none" x="631.7651" width="30" height="30" y="526" clip-path="url(#clipPath2)"/>
      <text x="643.8927" y="545.0178" clip-path="url(#clipPath2)" fill="white" font-family="'Fira Sans Light'" stroke="none" xml:space="preserve">2</text>
    </g>
    <g fill="rgb(232,217,114)" text-rendering="geometricPrecision" shape-rendering="geometricPrecision" transform="matrix(1,0,0,1,-589,-497)" stroke="rgb(232,217,114)">
      <rect x="716.6688" width="30" height="30" y="526" clip-path="url(#clipPath2)" stroke="none"/>
    </g>
    <g text-rendering="geometricPrecision" stroke-miterlimit="1.45" shape-rendering="geometricPrecision" transform="matrix(1,0,0,1,-589,-497)" stroke-linecap="butt">
      <rect fill="none" x="716.6688" width="30" height="30" y="526" clip-path="url(#clipPath2)"/>
      <text x="728.7544" y="545.0178" clip-path="url(#clipPath2)" fill="white" font-family="'Fira Sans Light'" stroke="none" xml:space="preserve">3</text>
    </g>
    <g fill="rgb(183,204,117)" text-rendering="geometricPrecision" shape-rendering="geometricPrecision" transform="matrix(1,0,0,1,-589,-497)" stroke="rgb(183,204,117)">
      <rect x="801.5725" width="30" height="30" y="526" clip-path="url(#clipPath2)" stroke="none"/>
    </g>
    <g text-rendering="geometricPrecision" stroke-miterlimit="1.45" shape-rendering="geometricPrecision" transform="matrix(1,0,0,1,-589,-497)" stroke-linecap="butt">
      <rect fill="none" x="801.5725" width="30" height="30" y="526" clip-path="url(#clipPath2)"/>
      <text x="813.4662" y="545.0178" clip-path="url(#clipPath2)" fill="white" font-family="'Fira Sans Light'" stroke="none" xml:space="preserve">4</text>
    </g>
    <g fill="rgb(100,139,191)" text-rendering="geometricPrecision" shape-rendering="geometricPrecision" transform="matrix(1,0,0,1,-589,-497)" stroke="rgb(100,139,191)">
      <rect x="589.3133" width="30" height="30" y="526" clip-path="url(#clipPath2)" stroke="none"/>
    </g>
    <g text-rendering="geometricPrecision" stroke-miterlimit="1.45" shape-rendering="geometricPrecision" transform="matrix(1,0,0,1,-589,-497)" stroke-linecap="butt">
      <rect fill="none" x="589.3133" width="30" height="30" y="526" clip-path="url(#clipPath2)"/>
      <text x="601.3929" y="545.0178" clip-path="url(#clipPath2)" fill="white" font-family="'Fira Sans Light'" stroke="none" xml:space="preserve">5</text>
    </g>
    <g fill="rgb(244,237,214)" text-rendering="geometricPrecision" shape-rendering="geometricPrecision" transform="matrix(1,0,0,1,-589,-497)" stroke="rgb(244,237,214)">
      <rect x="619.3133" width="30" height="30" y="616" clip-path="url(#clipPath2)" stroke="none"/>
    </g>
    <g text-rendering="geometricPrecision" stroke-miterlimit="1.45" shape-rendering="geometricPrecision" transform="matrix(1,0,0,1,-589,-497)" stroke-linecap="butt">
      <rect fill="none" x="619.3133" width="30" height="30" y="616" clip-path="url(#clipPath2)"/>
    </g>
    <g fill="rgb(244,237,214)" text-rendering="geometricPrecision" shape-rendering="geometricPrecision" transform="matrix(1,0,0,1,-589,-497)" stroke="rgb(244,237,214)">
      <rect x="649.3133" width="30" height="30" y="616" clip-path="url(#clipPath2)" stroke="none"/>
    </g>
    <g text-rendering="geometricPrecision" stroke-miterlimit="1.45" shape-rendering="geometricPrecision" transform="matrix(1,0,0,1,-589,-497)" stroke-linecap="butt">
      <rect fill="none" x="649.3133" width="30" height="30" y="616" clip-path="url(#clipPath2)"/>
    </g>
    <g fill="rgb(244,237,214)" text-rendering="geometricPrecision" shape-rendering="geometricPrecision" transform="matrix(1,0,0,1,-589,-497)" stroke="rgb(244,237,214)">
      <rect x="679.3133" width="30" height="30" y="616" clip-path="url(#clipPath2)" stroke="none"/>
    </g>
    <g text-rendering="geometricPrecision" stroke-miterlimit="1.45" shape-rendering="geometricPrecision" transform="matrix(1,0,0,1,-589,-497)" stroke-linecap="butt">
      <rect fill="none" x="679.3133" width="30" height="30" y="616" clip-path="url(#clipPath2)"/>
    </g>
    <g fill="rgb(244,237,214)" text-rendering="geometricPrecision" shape-rendering="geometricPrecision" transform="matrix(1,0,0,1,-589,-497)" stroke="rgb(244,237,214)">
      <rect x="709.3133" width="30" height="30" y="616" clip-path="url(#clipPath2)" stroke="none"/>
    </g>
    <g text-rendering="geometricPrecision" stroke-miterlimit="1.45" shape-rendering="geometricPrecision" transform="matrix(1,0,0,1,-589,-497)" stroke-linecap="butt">
      <rect fill="none" x="709.3133" width="30" height="30" y="616" clip-path="url(#clipPath2)"/>
    </g>
    <g fill="rgb(244,237,214)" text-rendering="geometricPrecision" shape-rendering="geometricPrecision" transform="matrix(1,0,0,1,-589,-497)" stroke="rgb(244,237,214)">
      <rect x="739.3133" width="30" height="30" y="616" clip-path="url(#clipPath2)" stroke="none"/>
    </g>
    <g text-rendering="geometricPrecision" stroke-miterlimit="1.45" shape-rendering="geometricPrecision" transform="matrix(1,0,0,1,-589,-497)" stroke-linecap="butt">
      <rect fill="none" x="739.3133" width="30" height="30" y="616" clip-path="url(#clipPath2)"/>
    </g>
    <g fill="rgb(244,237,214)" text-rendering="geometricPrecision" shape-rendering="geometricPrecision" transform="matrix(1,0,0,1,-589,-497)" stroke="rgb(244,237,214)">
      <rect x="769.3133" width="30" height="30" y="616" clip-path="url(#clipPath2)" stroke="none"/>
    </g>
    <g text-rendering="geometricPrecision" stroke-miterlimit="1.45" shape-rendering="geometricPrecision" transform="matrix(1,0,0,1,-589,-497)" stroke-linecap="butt">
      <rect fill="none" x="769.3133" width="30" height="30" y="616" clip-path="url(#clipPath2)"/>
      <text x="631.0151" xml:space="preserve" y="605.0178" clip-path="url(#clipPath2)" font-family="'Fira Sans Light'" stroke="none">0</text>
      <text x="661.8367" xml:space="preserve" y="605.0178" clip-path="url(#clipPath2)" font-family="'Fira Sans Light'" stroke="none">1</text>
      <text x="691.4409" xml:space="preserve" y="605.0178" clip-path="url(#clipPath2)" font-family="'Fira Sans Light'" stroke="none">2</text>
      <text x="721.3989" xml:space="preserve" y="605.0178" clip-path="url(#clipPath2)" font-family="'Fira Sans Light'" stroke="none">3</text>
      <text x="751.207" xml:space="preserve" y="605.0178" clip-path="url(#clipPath2)" font-family="'Fira Sans Light'" stroke="none">4</text>
      <text x="781.3929" xml:space="preserve" y="605.0178" clip-path="url(#clipPath2)" font-family="'Fira Sans Light'" stroke="none">5</text>
      <path fill="none" d="M619.3133 550 L735.8833 619.942" clip-path="url(#clipPath2)" stroke="silver"/>
      <path fill="silver" d="M739.3133 622 L735.5403 612.7391 L735.0258 619.4276 L729.3664 623.029 Z" clip-path="url(#clipPath2)" stroke="none"/>
      <path fill="none" d="M619.3133 521.8 L735.8632 590.176" clip-path="url(#clipPath2)" stroke="silver"/>
      <path fill="silver" d="M739.3133 592.2 L735.4491 582.9767 L735.0007 589.67 L729.377 593.3271 Z" clip-path="url(#clipPath2)" stroke="none"/>
    </g>
  </g>
</svg>
