<?xml version="1.0" encoding="UTF-8"?><svg xmlns="http://www.w3.org/2000/svg" xmlns:xlink="http://www.w3.org/1999/xlink" fill-opacity="1" color-rendering="auto" color-interpolation="auto" text-rendering="auto" stroke="black" stroke-linecap="square" width="243" stroke-miterlimit="10" shape-rendering="auto" stroke-opacity="1" fill="black" stroke-dasharray="none" font-weight="normal" stroke-width="1" height="149" font-family="'Dialog'" font-style="normal" stroke-linejoin="miter" font-size="12px" stroke-dashoffset="0" image-rendering="auto">
  <!--Generated by ySVG 2.6-->
  <defs id="genericDefs"/>
  <g>
    <defs id="defs1">
      <clipPath clipPathUnits="userSpaceOnUse" id="clipPath1">
        <path d="M0 0 L243 0 L243 149 L0 149 L0 0 Z"/>
      </clipPath>
      <clipPath clipPathUnits="userSpaceOnUse" id="clipPath2">
        <path d="M619 528 L862 528 L862 677 L619 677 L619 528 Z"/>
      </clipPath>
    </defs>
    <g fill="rgb(205,164,182)" text-rendering="geometricPrecision" shape-rendering="geometricPrecision" transform="matrix(1,0,0,1,-619,-528)" stroke="rgb(205,164,182)">
      <rect x="746.9821" width="30" height="30" y="529" clip-path="url(#clipPath2)" stroke="none"/>
    </g>
    <g text-rendering="geometricPrecision" stroke-miterlimit="1.45" shape-rendering="geometricPrecision" transform="matrix(1,0,0,1,-619,-528)" stroke-linecap="butt">
      <rect fill="none" x="746.9821" width="30" height="30" y="529" clip-path="url(#clipPath2)"/>
      <text x="758.6839" y="548.0178" clip-path="url(#clipPath2)" fill="white" font-family="'Fira Sans Light'" stroke="none" xml:space="preserve">0</text>
    </g>
    <g fill="rgb(230,82,106)" text-rendering="geometricPrecision" shape-rendering="geometricPrecision" transform="matrix(1,0,0,1,-619,-528)" stroke="rgb(230,82,106)">
      <rect x="831.8858" width="30" height="30" y="529" clip-path="url(#clipPath2)" stroke="none"/>
    </g>
    <g text-rendering="geometricPrecision" stroke-miterlimit="1.45" shape-rendering="geometricPrecision" transform="matrix(1,0,0,1,-619,-528)" stroke-linecap="butt">
      <rect fill="none" x="831.8858" width="30" height="30" y="529" clip-path="url(#clipPath2)"/>
      <text x="844.4091" y="548.0178" clip-path="url(#clipPath2)" fill="white" font-family="'Fira Sans Light'" stroke="none" xml:space="preserve">1</text>
    </g>
    <g fill="rgb(253,170,125)" text-rendering="geometricPrecision" shape-rendering="geometricPrecision" transform="matrix(1,0,0,1,-619,-528)" stroke="rgb(253,170,125)">
      <rect x="704.5302" width="30" height="30" y="529" clip-path="url(#clipPath2)" stroke="none"/>
    </g>
    <g text-rendering="geometricPrecision" stroke-miterlimit="1.45" shape-rendering="geometricPrecision" transform="matrix(1,0,0,1,-619,-528)" stroke-linecap="butt">
      <rect fill="none" x="704.5302" width="30" height="30" y="529" clip-path="url(#clipPath2)"/>
      <text x="716.6578" y="548.0178" clip-path="url(#clipPath2)" fill="white" font-family="'Fira Sans Light'" stroke="none" xml:space="preserve">2</text>
    </g>
    <g fill="rgb(232,217,114)" text-rendering="geometricPrecision" shape-rendering="geometricPrecision" transform="matrix(1,0,0,1,-619,-528)" stroke="rgb(232,217,114)">
      <rect x="789.4339" width="30" height="30" y="529" clip-path="url(#clipPath2)" stroke="none"/>
    </g>
    <g text-rendering="geometricPrecision" stroke-miterlimit="1.45" shape-rendering="geometricPrecision" transform="matrix(1,0,0,1,-619,-528)" stroke-linecap="butt">
      <rect fill="none" x="789.4339" width="30" height="30" y="529" clip-path="url(#clipPath2)"/>
      <text x="801.5195" y="548.0178" clip-path="url(#clipPath2)" fill="white" font-family="'Fira Sans Light'" stroke="none" xml:space="preserve">3</text>
    </g>
    <g fill="rgb(183,204,117)" text-rendering="geometricPrecision" shape-rendering="geometricPrecision" transform="matrix(1,0,0,1,-619,-528)" stroke="rgb(183,204,117)">
      <rect x="619.6266" width="30" height="30" y="529" clip-path="url(#clipPath2)" stroke="none"/>
    </g>
    <g text-rendering="geometricPrecision" stroke-miterlimit="1.45" shape-rendering="geometricPrecision" transform="matrix(1,0,0,1,-619,-528)" stroke-linecap="butt">
      <rect fill="none" x="619.6266" width="30" height="30" y="529" clip-path="url(#clipPath2)"/>
      <text x="631.5203" y="548.0178" clip-path="url(#clipPath2)" fill="white" font-family="'Fira Sans Light'" stroke="none" xml:space="preserve">4</text>
    </g>
    <g fill="rgb(100,139,191)" text-rendering="geometricPrecision" shape-rendering="geometricPrecision" transform="matrix(1,0,0,1,-619,-528)" stroke="rgb(100,139,191)">
      <rect x="662.0784" width="30" height="30" y="529" clip-path="url(#clipPath2)" stroke="none"/>
    </g>
    <g text-rendering="geometricPrecision" stroke-miterlimit="1.45" shape-rendering="geometricPrecision" transform="matrix(1,0,0,1,-619,-528)" stroke-linecap="butt">
      <rect fill="none" x="662.0784" width="30" height="30" y="529" clip-path="url(#clipPath2)"/>
      <text x="674.158" y="548.0178" clip-path="url(#clipPath2)" fill="white" font-family="'Fira Sans Light'" stroke="none" xml:space="preserve">5</text>
    </g>
    <g fill="rgb(205,164,182)" text-rendering="geometricPrecision" shape-rendering="geometricPrecision" transform="matrix(1,0,0,1,-619,-528)" stroke="rgb(205,164,182)">
      <rect x="704.5302" width="30" height="30" y="557" clip-path="url(#clipPath2)" stroke="none"/>
    </g>
    <g text-rendering="geometricPrecision" stroke-miterlimit="1.45" shape-rendering="geometricPrecision" transform="matrix(1,0,0,1,-619,-528)" stroke-linecap="butt">
      <rect fill="none" x="704.5302" width="30" height="30" y="557" clip-path="url(#clipPath2)"/>
      <text x="716.2321" y="576.0178" clip-path="url(#clipPath2)" fill="white" font-family="'Fira Sans Light'" stroke="none" xml:space="preserve">0</text>
    </g>
    <g fill="rgb(230,82,106)" text-rendering="geometricPrecision" shape-rendering="geometricPrecision" transform="matrix(1,0,0,1,-619,-528)" stroke="rgb(230,82,106)">
      <rect x="789.4339" width="30" height="30" y="557" clip-path="url(#clipPath2)" stroke="none"/>
    </g>
    <g text-rendering="geometricPrecision" stroke-miterlimit="1.45" shape-rendering="geometricPrecision" transform="matrix(1,0,0,1,-619,-528)" stroke-linecap="butt">
      <rect fill="none" x="789.4339" width="30" height="30" y="557" clip-path="url(#clipPath2)"/>
      <text x="801.9573" y="576.0178" clip-path="url(#clipPath2)" fill="white" font-family="'Fira Sans Light'" stroke="none" xml:space="preserve">1</text>
    </g>
    <g fill="rgb(253,170,125)" text-rendering="geometricPrecision" shape-rendering="geometricPrecision" transform="matrix(1,0,0,1,-619,-528)" stroke="rgb(253,170,125)">
      <rect x="662.0784" width="30" height="30" y="557" clip-path="url(#clipPath2)" stroke="none"/>
    </g>
    <g text-rendering="geometricPrecision" stroke-miterlimit="1.45" shape-rendering="geometricPrecision" transform="matrix(1,0,0,1,-619,-528)" stroke-linecap="butt">
      <rect fill="none" x="662.0784" width="30" height="30" y="557" clip-path="url(#clipPath2)"/>
      <text x="674.206" y="576.0178" clip-path="url(#clipPath2)" fill="white" font-family="'Fira Sans Light'" stroke="none" xml:space="preserve">2</text>
    </g>
    <g fill="rgb(232,217,114)" text-rendering="geometricPrecision" shape-rendering="geometricPrecision" transform="matrix(1,0,0,1,-619,-528)" stroke="rgb(232,217,114)">
      <rect x="746.9821" width="30" height="30" y="557" clip-path="url(#clipPath2)" stroke="none"/>
    </g>
    <g text-rendering="geometricPrecision" stroke-miterlimit="1.45" shape-rendering="geometricPrecision" transform="matrix(1,0,0,1,-619,-528)" stroke-linecap="butt">
      <rect fill="none" x="746.9821" width="30" height="30" y="557" clip-path="url(#clipPath2)"/>
      <text x="759.0677" y="576.0178" clip-path="url(#clipPath2)" fill="white" font-family="'Fira Sans Light'" stroke="none" xml:space="preserve">3</text>
    </g>
    <g fill="rgb(183,204,117)" text-rendering="geometricPrecision" shape-rendering="geometricPrecision" transform="matrix(1,0,0,1,-619,-528)" stroke="rgb(183,204,117)">
      <rect x="831.8858" width="30" height="30" y="557" clip-path="url(#clipPath2)" stroke="none"/>
    </g>
    <g text-rendering="geometricPrecision" stroke-miterlimit="1.45" shape-rendering="geometricPrecision" transform="matrix(1,0,0,1,-619,-528)" stroke-linecap="butt">
      <rect fill="none" x="831.8858" width="30" height="30" y="557" clip-path="url(#clipPath2)"/>
      <text x="843.7795" y="576.0178" clip-path="url(#clipPath2)" fill="white" font-family="'Fira Sans Light'" stroke="none" xml:space="preserve">4</text>
    </g>
    <g fill="rgb(100,139,191)" text-rendering="geometricPrecision" shape-rendering="geometricPrecision" transform="matrix(1,0,0,1,-619,-528)" stroke="rgb(100,139,191)">
      <rect x="619.6266" width="30" height="30" y="557" clip-path="url(#clipPath2)" stroke="none"/>
    </g>
    <g text-rendering="geometricPrecision" stroke-miterlimit="1.45" shape-rendering="geometricPrecision" transform="matrix(1,0,0,1,-619,-528)" stroke-linecap="butt">
      <rect fill="none" x="619.6266" width="30" height="30" y="557" clip-path="url(#clipPath2)"/>
      <text x="631.7062" y="576.0178" clip-path="url(#clipPath2)" fill="white" font-family="'Fira Sans Light'" stroke="none" xml:space="preserve">5</text>
    </g>
    <g fill="rgb(244,237,214)" text-rendering="geometricPrecision" shape-rendering="geometricPrecision" transform="matrix(1,0,0,1,-619,-528)" stroke="rgb(244,237,214)">
      <rect x="649.6266" width="30" height="30" y="647" clip-path="url(#clipPath2)" stroke="none"/>
    </g>
    <g text-rendering="geometricPrecision" stroke-miterlimit="1.45" shape-rendering="geometricPrecision" transform="matrix(1,0,0,1,-619,-528)" stroke-linecap="butt">
      <rect fill="none" x="649.6266" width="30" height="30" y="647" clip-path="url(#clipPath2)"/>
    </g>
    <g fill="rgb(244,237,214)" text-rendering="geometricPrecision" shape-rendering="geometricPrecision" transform="matrix(1,0,0,1,-619,-528)" stroke="rgb(244,237,214)">
      <rect x="679.6266" width="30" height="30" y="647" clip-path="url(#clipPath2)" stroke="none"/>
    </g>
    <g text-rendering="geometricPrecision" stroke-miterlimit="1.45" shape-rendering="geometricPrecision" transform="matrix(1,0,0,1,-619,-528)" stroke-linecap="butt">
      <rect fill="none" x="679.6266" width="30" height="30" y="647" clip-path="url(#clipPath2)"/>
    </g>
    <g fill="rgb(244,237,214)" text-rendering="geometricPrecision" shape-rendering="geometricPrecision" transform="matrix(1,0,0,1,-619,-528)" stroke="rgb(244,237,214)">
      <rect x="709.6266" width="30" height="30" y="647" clip-path="url(#clipPath2)" stroke="none"/>
    </g>
    <g text-rendering="geometricPrecision" stroke-miterlimit="1.45" shape-rendering="geometricPrecision" transform="matrix(1,0,0,1,-619,-528)" stroke-linecap="butt">
      <rect fill="none" x="709.6266" width="30" height="30" y="647" clip-path="url(#clipPath2)"/>
    </g>
    <g fill="rgb(244,237,214)" text-rendering="geometricPrecision" shape-rendering="geometricPrecision" transform="matrix(1,0,0,1,-619,-528)" stroke="rgb(244,237,214)">
      <rect x="739.6266" width="30" height="30" y="647" clip-path="url(#clipPath2)" stroke="none"/>
    </g>
    <g text-rendering="geometricPrecision" stroke-miterlimit="1.45" shape-rendering="geometricPrecision" transform="matrix(1,0,0,1,-619,-528)" stroke-linecap="butt">
      <rect fill="none" x="739.6266" width="30" height="30" y="647" clip-path="url(#clipPath2)"/>
    </g>
    <g fill="rgb(244,237,214)" text-rendering="geometricPrecision" shape-rendering="geometricPrecision" transform="matrix(1,0,0,1,-619,-528)" stroke="rgb(244,237,214)">
      <rect x="769.6266" width="30" height="30" y="647" clip-path="url(#clipPath2)" stroke="none"/>
    </g>
    <g text-rendering="geometricPrecision" stroke-miterlimit="1.45" shape-rendering="geometricPrecision" transform="matrix(1,0,0,1,-619,-528)" stroke-linecap="butt">
      <rect fill="none" x="769.6266" width="30" height="30" y="647" clip-path="url(#clipPath2)"/>
      <text x="781.7062" xml:space="preserve" y="666.0178" clip-path="url(#clipPath2)" font-family="'Fira Sans Light'" stroke="none">5</text>
    </g>
    <g fill="rgb(244,237,214)" text-rendering="geometricPrecision" shape-rendering="geometricPrecision" transform="matrix(1,0,0,1,-619,-528)" stroke="rgb(244,237,214)">
      <rect x="799.6266" width="30" height="30" y="647" clip-path="url(#clipPath2)" stroke="none"/>
    </g>
    <g text-rendering="geometricPrecision" stroke-miterlimit="1.45" shape-rendering="geometricPrecision" transform="matrix(1,0,0,1,-619,-528)" stroke-linecap="butt">
      <rect fill="none" x="799.6266" width="30" height="30" y="647" clip-path="url(#clipPath2)"/>
      <text x="661.3284" xml:space="preserve" y="636.0178" clip-path="url(#clipPath2)" font-family="'Fira Sans Light'" stroke="none">0</text>
      <text x="692.1499" xml:space="preserve" y="636.0178" clip-path="url(#clipPath2)" font-family="'Fira Sans Light'" stroke="none">1</text>
      <text x="721.7542" xml:space="preserve" y="636.0178" clip-path="url(#clipPath2)" font-family="'Fira Sans Light'" stroke="none">2</text>
      <text x="751.7122" xml:space="preserve" y="636.0178" clip-path="url(#clipPath2)" font-family="'Fira Sans Light'" stroke="none">3</text>
      <text x="781.5203" xml:space="preserve" y="636.0178" clip-path="url(#clipPath2)" font-family="'Fira Sans Light'" stroke="none">4</text>
      <text x="811.7062" xml:space="preserve" y="636.0178" clip-path="url(#clipPath2)" font-family="'Fira Sans Light'" stroke="none">5</text>
      <path fill="none" d="M692.0784 581.8148 L796.2794 649.9952" clip-path="url(#clipPath2)" stroke="silver"/>
      <path fill="silver" d="M799.6266 652.1852 L796.2173 642.7844 L795.4426 649.4476 L789.6472 652.8259 Z" clip-path="url(#clipPath2)" stroke="none"/>
      <path fill="none" d="M692.0784 553.5966 L796.2571 620.2477" clip-path="url(#clipPath2)" stroke="silver"/>
      <path fill="silver" d="M799.6266 622.4034 L796.1213 613.0379 L795.4148 619.7088 L789.6542 623.1461 Z" clip-path="url(#clipPath2)" stroke="none"/>
    </g>
  </g>
</svg>
