<?xml version="1.0" encoding="UTF-8"?><svg xmlns="http://www.w3.org/2000/svg" xmlns:xlink="http://www.w3.org/1999/xlink" fill-opacity="1" color-rendering="auto" color-interpolation="auto" text-rendering="auto" stroke="black" stroke-linecap="square" width="243" stroke-miterlimit="10" shape-rendering="auto" stroke-opacity="1" fill="black" stroke-dasharray="none" font-weight="normal" stroke-width="1" height="149" font-family="'Dialog'" font-style="normal" stroke-linejoin="miter" font-size="12px" stroke-dashoffset="0" image-rendering="auto">
  <!--Generated by ySVG 2.6-->
  <defs id="genericDefs"/>
  <g>
    <defs id="defs1">
      <clipPath clipPathUnits="userSpaceOnUse" id="clipPath1">
        <path d="M0 0 L243 0 L243 149 L0 149 L0 0 Z"/>
      </clipPath>
      <clipPath clipPathUnits="userSpaceOnUse" id="clipPath2">
        <path d="M650 559 L893 559 L893 708 L650 708 L650 559 Z"/>
      </clipPath>
    </defs>
    <g fill="rgb(205,164,182)" text-rendering="geometricPrecision" shape-rendering="geometricPrecision" transform="matrix(1,0,0,1,-650,-559)" stroke="rgb(205,164,182)">
      <rect x="777.6086" width="30" height="30" y="560" clip-path="url(#clipPath2)" stroke="none"/>
    </g>
    <g text-rendering="geometricPrecision" stroke-miterlimit="1.45" shape-rendering="geometricPrecision" transform="matrix(1,0,0,1,-650,-559)" stroke-linecap="butt">
      <rect fill="none" x="777.6086" width="30" height="30" y="560" clip-path="url(#clipPath2)"/>
      <text x="789.3104" y="579.0178" clip-path="url(#clipPath2)" fill="white" font-family="'Fira Sans Light'" stroke="none" xml:space="preserve">0</text>
    </g>
    <g fill="rgb(230,82,106)" text-rendering="geometricPrecision" shape-rendering="geometricPrecision" transform="matrix(1,0,0,1,-650,-559)" stroke="rgb(230,82,106)">
      <rect x="862.5123" width="30" height="30" y="560" clip-path="url(#clipPath2)" stroke="none"/>
    </g>
    <g text-rendering="geometricPrecision" stroke-miterlimit="1.45" shape-rendering="geometricPrecision" transform="matrix(1,0,0,1,-650,-559)" stroke-linecap="butt">
      <rect fill="none" x="862.5123" width="30" height="30" y="560" clip-path="url(#clipPath2)"/>
      <text x="875.0357" y="579.0178" clip-path="url(#clipPath2)" fill="white" font-family="'Fira Sans Light'" stroke="none" xml:space="preserve">1</text>
    </g>
    <g fill="rgb(253,170,125)" text-rendering="geometricPrecision" shape-rendering="geometricPrecision" transform="matrix(1,0,0,1,-650,-559)" stroke="rgb(253,170,125)">
      <rect x="735.1568" width="30" height="30" y="560" clip-path="url(#clipPath2)" stroke="none"/>
    </g>
    <g text-rendering="geometricPrecision" stroke-miterlimit="1.45" shape-rendering="geometricPrecision" transform="matrix(1,0,0,1,-650,-559)" stroke-linecap="butt">
      <rect fill="none" x="735.1568" width="30" height="30" y="560" clip-path="url(#clipPath2)"/>
      <text x="747.2844" y="579.0178" clip-path="url(#clipPath2)" fill="white" font-family="'Fira Sans Light'" stroke="none" xml:space="preserve">2</text>
    </g>
    <g fill="rgb(232,217,114)" text-rendering="geometricPrecision" shape-rendering="geometricPrecision" transform="matrix(1,0,0,1,-650,-559)" stroke="rgb(232,217,114)">
      <rect x="820.0605" width="30" height="30" y="560" clip-path="url(#clipPath2)" stroke="none"/>
    </g>
    <g text-rendering="geometricPrecision" stroke-miterlimit="1.45" shape-rendering="geometricPrecision" transform="matrix(1,0,0,1,-650,-559)" stroke-linecap="butt">
      <rect fill="none" x="820.0605" width="30" height="30" y="560" clip-path="url(#clipPath2)"/>
      <text x="832.1461" y="579.0178" clip-path="url(#clipPath2)" fill="white" font-family="'Fira Sans Light'" stroke="none" xml:space="preserve">3</text>
    </g>
    <g fill="rgb(183,204,117)" text-rendering="geometricPrecision" shape-rendering="geometricPrecision" transform="matrix(1,0,0,1,-650,-559)" stroke="rgb(183,204,117)">
      <rect x="650.2531" width="30" height="30" y="560" clip-path="url(#clipPath2)" stroke="none"/>
    </g>
    <g text-rendering="geometricPrecision" stroke-miterlimit="1.45" shape-rendering="geometricPrecision" transform="matrix(1,0,0,1,-650,-559)" stroke-linecap="butt">
      <rect fill="none" x="650.2531" width="30" height="30" y="560" clip-path="url(#clipPath2)"/>
      <text x="662.1469" y="579.0178" clip-path="url(#clipPath2)" fill="white" font-family="'Fira Sans Light'" stroke="none" xml:space="preserve">4</text>
    </g>
    <g fill="rgb(100,139,191)" text-rendering="geometricPrecision" shape-rendering="geometricPrecision" transform="matrix(1,0,0,1,-650,-559)" stroke="rgb(100,139,191)">
      <rect x="692.705" width="30" height="30" y="560" clip-path="url(#clipPath2)" stroke="none"/>
    </g>
    <g text-rendering="geometricPrecision" stroke-miterlimit="1.45" shape-rendering="geometricPrecision" transform="matrix(1,0,0,1,-650,-559)" stroke-linecap="butt">
      <rect fill="none" x="692.705" width="30" height="30" y="560" clip-path="url(#clipPath2)"/>
      <text x="704.7845" y="579.0178" clip-path="url(#clipPath2)" fill="white" font-family="'Fira Sans Light'" stroke="none" xml:space="preserve">5</text>
    </g>
    <g fill="rgb(205,164,182)" text-rendering="geometricPrecision" shape-rendering="geometricPrecision" transform="matrix(1,0,0,1,-650,-559)" stroke="rgb(205,164,182)">
      <rect x="735.1568" width="30" height="30" y="588" clip-path="url(#clipPath2)" stroke="none"/>
    </g>
    <g text-rendering="geometricPrecision" stroke-miterlimit="1.45" shape-rendering="geometricPrecision" transform="matrix(1,0,0,1,-650,-559)" stroke-linecap="butt">
      <rect fill="none" x="735.1568" width="30" height="30" y="588" clip-path="url(#clipPath2)"/>
      <text x="746.8586" y="607.0178" clip-path="url(#clipPath2)" fill="white" font-family="'Fira Sans Light'" stroke="none" xml:space="preserve">0</text>
    </g>
    <g fill="rgb(230,82,106)" text-rendering="geometricPrecision" shape-rendering="geometricPrecision" transform="matrix(1,0,0,1,-650,-559)" stroke="rgb(230,82,106)">
      <rect x="820.0605" width="30" height="30" y="588" clip-path="url(#clipPath2)" stroke="none"/>
    </g>
    <g text-rendering="geometricPrecision" stroke-miterlimit="1.45" shape-rendering="geometricPrecision" transform="matrix(1,0,0,1,-650,-559)" stroke-linecap="butt">
      <rect fill="none" x="820.0605" width="30" height="30" y="588" clip-path="url(#clipPath2)"/>
      <text x="832.5839" y="607.0178" clip-path="url(#clipPath2)" fill="white" font-family="'Fira Sans Light'" stroke="none" xml:space="preserve">1</text>
    </g>
    <g fill="rgb(253,170,125)" text-rendering="geometricPrecision" shape-rendering="geometricPrecision" transform="matrix(1,0,0,1,-650,-559)" stroke="rgb(253,170,125)">
      <rect x="692.705" width="30" height="30" y="588" clip-path="url(#clipPath2)" stroke="none"/>
    </g>
    <g text-rendering="geometricPrecision" stroke-miterlimit="1.45" shape-rendering="geometricPrecision" transform="matrix(1,0,0,1,-650,-559)" stroke-linecap="butt">
      <rect fill="none" x="692.705" width="30" height="30" y="588" clip-path="url(#clipPath2)"/>
      <text x="704.8325" y="607.0178" clip-path="url(#clipPath2)" fill="white" font-family="'Fira Sans Light'" stroke="none" xml:space="preserve">2</text>
    </g>
    <g fill="rgb(232,217,114)" text-rendering="geometricPrecision" shape-rendering="geometricPrecision" transform="matrix(1,0,0,1,-650,-559)" stroke="rgb(232,217,114)">
      <rect x="777.6086" width="30" height="30" y="588" clip-path="url(#clipPath2)" stroke="none"/>
    </g>
    <g text-rendering="geometricPrecision" stroke-miterlimit="1.45" shape-rendering="geometricPrecision" transform="matrix(1,0,0,1,-650,-559)" stroke-linecap="butt">
      <rect fill="none" x="777.6086" width="30" height="30" y="588" clip-path="url(#clipPath2)"/>
      <text x="789.6942" y="607.0178" clip-path="url(#clipPath2)" fill="white" font-family="'Fira Sans Light'" stroke="none" xml:space="preserve">3</text>
    </g>
    <g fill="rgb(183,204,117)" text-rendering="geometricPrecision" shape-rendering="geometricPrecision" transform="matrix(1,0,0,1,-650,-559)" stroke="rgb(183,204,117)">
      <rect x="862.5123" width="30" height="30" y="588" clip-path="url(#clipPath2)" stroke="none"/>
    </g>
    <g text-rendering="geometricPrecision" stroke-miterlimit="1.45" shape-rendering="geometricPrecision" transform="matrix(1,0,0,1,-650,-559)" stroke-linecap="butt">
      <rect fill="none" x="862.5123" width="30" height="30" y="588" clip-path="url(#clipPath2)"/>
      <text x="874.406" y="607.0178" clip-path="url(#clipPath2)" fill="white" font-family="'Fira Sans Light'" stroke="none" xml:space="preserve">4</text>
    </g>
    <g fill="rgb(100,139,191)" text-rendering="geometricPrecision" shape-rendering="geometricPrecision" transform="matrix(1,0,0,1,-650,-559)" stroke="rgb(100,139,191)">
      <rect x="650.2531" width="30" height="30" y="588" clip-path="url(#clipPath2)" stroke="none"/>
    </g>
    <g text-rendering="geometricPrecision" stroke-miterlimit="1.45" shape-rendering="geometricPrecision" transform="matrix(1,0,0,1,-650,-559)" stroke-linecap="butt">
      <rect fill="none" x="650.2531" width="30" height="30" y="588" clip-path="url(#clipPath2)"/>
      <text x="662.3327" y="607.0178" clip-path="url(#clipPath2)" fill="white" font-family="'Fira Sans Light'" stroke="none" xml:space="preserve">5</text>
    </g>
    <g fill="rgb(244,237,214)" text-rendering="geometricPrecision" shape-rendering="geometricPrecision" transform="matrix(1,0,0,1,-650,-559)" stroke="rgb(244,237,214)">
      <rect x="680.2531" width="30" height="30" y="678" clip-path="url(#clipPath2)" stroke="none"/>
    </g>
    <g text-rendering="geometricPrecision" stroke-miterlimit="1.45" shape-rendering="geometricPrecision" transform="matrix(1,0,0,1,-650,-559)" stroke-linecap="butt">
      <rect fill="none" x="680.2531" width="30" height="30" y="678" clip-path="url(#clipPath2)"/>
      <text x="692.3387" xml:space="preserve" y="697.0178" clip-path="url(#clipPath2)" font-family="'Fira Sans Light'" stroke="none">3</text>
    </g>
    <g fill="rgb(244,237,214)" text-rendering="geometricPrecision" shape-rendering="geometricPrecision" transform="matrix(1,0,0,1,-650,-559)" stroke="rgb(244,237,214)">
      <rect x="710.2531" width="30" height="30" y="678" clip-path="url(#clipPath2)" stroke="none"/>
    </g>
    <g text-rendering="geometricPrecision" stroke-miterlimit="1.45" shape-rendering="geometricPrecision" transform="matrix(1,0,0,1,-650,-559)" stroke-linecap="butt">
      <rect fill="none" x="710.2531" width="30" height="30" y="678" clip-path="url(#clipPath2)"/>
      <text x="722.1469" xml:space="preserve" y="697.0178" clip-path="url(#clipPath2)" font-family="'Fira Sans Light'" stroke="none">4</text>
    </g>
    <g fill="rgb(244,237,214)" text-rendering="geometricPrecision" shape-rendering="geometricPrecision" transform="matrix(1,0,0,1,-650,-559)" stroke="rgb(244,237,214)">
      <rect x="740.2531" width="30" height="30" y="678" clip-path="url(#clipPath2)" stroke="none"/>
    </g>
    <g text-rendering="geometricPrecision" stroke-miterlimit="1.45" shape-rendering="geometricPrecision" transform="matrix(1,0,0,1,-650,-559)" stroke-linecap="butt">
      <rect fill="none" x="740.2531" width="30" height="30" y="678" clip-path="url(#clipPath2)"/>
      <text x="751.955" xml:space="preserve" y="697.0178" clip-path="url(#clipPath2)" font-family="'Fira Sans Light'" stroke="none">0</text>
    </g>
    <g fill="rgb(244,237,214)" text-rendering="geometricPrecision" shape-rendering="geometricPrecision" transform="matrix(1,0,0,1,-650,-559)" stroke="rgb(244,237,214)">
      <rect x="770.2531" width="30" height="30" y="678" clip-path="url(#clipPath2)" stroke="none"/>
    </g>
    <g text-rendering="geometricPrecision" stroke-miterlimit="1.45" shape-rendering="geometricPrecision" transform="matrix(1,0,0,1,-650,-559)" stroke-linecap="butt">
      <rect fill="none" x="770.2531" width="30" height="30" y="678" clip-path="url(#clipPath2)"/>
      <text x="782.7765" xml:space="preserve" y="697.0178" clip-path="url(#clipPath2)" font-family="'Fira Sans Light'" stroke="none">1</text>
    </g>
    <g fill="rgb(244,237,214)" text-rendering="geometricPrecision" shape-rendering="geometricPrecision" transform="matrix(1,0,0,1,-650,-559)" stroke="rgb(244,237,214)">
      <rect x="800.2531" width="30" height="30" y="678" clip-path="url(#clipPath2)" stroke="none"/>
    </g>
    <g text-rendering="geometricPrecision" stroke-miterlimit="1.45" shape-rendering="geometricPrecision" transform="matrix(1,0,0,1,-650,-559)" stroke-linecap="butt">
      <rect fill="none" x="800.2531" width="30" height="30" y="678" clip-path="url(#clipPath2)"/>
      <text x="812.3327" xml:space="preserve" y="697.0178" clip-path="url(#clipPath2)" font-family="'Fira Sans Light'" stroke="none">5</text>
    </g>
    <g fill="rgb(244,237,214)" text-rendering="geometricPrecision" shape-rendering="geometricPrecision" transform="matrix(1,0,0,1,-650,-559)" stroke="rgb(244,237,214)">
      <rect x="830.2531" width="30" height="30" y="678" clip-path="url(#clipPath2)" stroke="none"/>
    </g>
    <g text-rendering="geometricPrecision" stroke-miterlimit="1.45" shape-rendering="geometricPrecision" transform="matrix(1,0,0,1,-650,-559)" stroke-linecap="butt">
      <rect fill="none" x="830.2531" width="30" height="30" y="678" clip-path="url(#clipPath2)"/>
      <text x="842.3807" xml:space="preserve" y="697.0178" clip-path="url(#clipPath2)" font-family="'Fira Sans Light'" stroke="none">2</text>
      <text x="691.955" xml:space="preserve" y="667.0178" clip-path="url(#clipPath2)" font-family="'Fira Sans Light'" stroke="none">0</text>
      <text x="722.7765" xml:space="preserve" y="667.0178" clip-path="url(#clipPath2)" font-family="'Fira Sans Light'" stroke="none">1</text>
      <text x="752.3807" xml:space="preserve" y="667.0178" clip-path="url(#clipPath2)" font-family="'Fira Sans Light'" stroke="none">2</text>
      <text x="782.3387" xml:space="preserve" y="667.0178" clip-path="url(#clipPath2)" font-family="'Fira Sans Light'" stroke="none">3</text>
      <text x="812.1469" xml:space="preserve" y="667.0178" clip-path="url(#clipPath2)" font-family="'Fira Sans Light'" stroke="none">4</text>
      <text x="842.3327" xml:space="preserve" y="667.0178" clip-path="url(#clipPath2)" font-family="'Fira Sans Light'" stroke="none">5</text>
    </g>
  </g>
</svg>
