<?xml version="1.0" encoding="UTF-8"?><svg xmlns="http://www.w3.org/2000/svg" xmlns:xlink="http://www.w3.org/1999/xlink" fill-opacity="1" color-rendering="auto" color-interpolation="auto" text-rendering="auto" stroke="black" stroke-linecap="square" width="648" stroke-miterlimit="10" shape-rendering="auto" stroke-opacity="1" fill="black" stroke-dasharray="none" font-weight="normal" stroke-width="1" height="92" font-family="'Dialog'" font-style="normal" stroke-linejoin="miter" font-size="12px" stroke-dashoffset="0" image-rendering="auto">
  <!--Generated by ySVG 2.6-->
  <defs id="genericDefs"/>
  <g>
    <defs id="defs1">
      <clipPath clipPathUnits="userSpaceOnUse" id="clipPath1">
        <path d="M0 0 L648 0 L648 92 L0 92 L0 0 Z"/>
      </clipPath>
      <clipPath clipPathUnits="userSpaceOnUse" id="clipPath2">
        <path d="M461 389 L1109 389 L1109 481 L461 481 L461 389 Z"/>
      </clipPath>
    </defs>
    <g fill="rgb(205,164,182)" text-rendering="geometricPrecision" shape-rendering="geometricPrecision" transform="matrix(1,0,0,1,-461,-389)" stroke="rgb(205,164,182)">
      <rect x="476.2339" width="30" height="30" y="405" clip-path="url(#clipPath2)" stroke="none"/>
    </g>
    <g text-rendering="geometricPrecision" stroke-miterlimit="1.45" shape-rendering="geometricPrecision" transform="matrix(1,0,0,1,-461,-389)" stroke-linecap="butt">
      <rect fill="none" x="476.2339" width="30" height="30" y="405" clip-path="url(#clipPath2)"/>
      <text x="487.9357" y="424.0178" clip-path="url(#clipPath2)" fill="white" font-family="'Fira Sans Light'" stroke="none" xml:space="preserve">0</text>
    </g>
    <g fill="rgb(230,82,106)" text-rendering="geometricPrecision" shape-rendering="geometricPrecision" transform="matrix(1,0,0,1,-461,-389)" stroke="rgb(230,82,106)">
      <rect x="518.6858" width="30" height="30" y="405" clip-path="url(#clipPath2)" stroke="none"/>
    </g>
    <g text-rendering="geometricPrecision" stroke-miterlimit="1.45" shape-rendering="geometricPrecision" transform="matrix(1,0,0,1,-461,-389)" stroke-linecap="butt">
      <rect fill="none" x="518.6858" width="30" height="30" y="405" clip-path="url(#clipPath2)"/>
      <text x="531.2091" y="424.0178" clip-path="url(#clipPath2)" fill="white" font-family="'Fira Sans Light'" stroke="none" xml:space="preserve">1</text>
    </g>
    <g fill="rgb(253,170,125)" text-rendering="geometricPrecision" shape-rendering="geometricPrecision" transform="matrix(1,0,0,1,-461,-389)" stroke="rgb(253,170,125)">
      <rect x="561.1376" width="30" height="30" y="405" clip-path="url(#clipPath2)" stroke="none"/>
    </g>
    <g text-rendering="geometricPrecision" stroke-miterlimit="1.45" shape-rendering="geometricPrecision" transform="matrix(1,0,0,1,-461,-389)" stroke-linecap="butt">
      <rect fill="none" x="561.1376" width="30" height="30" y="405" clip-path="url(#clipPath2)"/>
      <text x="573.2652" y="424.0178" clip-path="url(#clipPath2)" fill="white" font-family="'Fira Sans Light'" stroke="none" xml:space="preserve">2</text>
    </g>
    <g fill="rgb(232,217,114)" text-rendering="geometricPrecision" shape-rendering="geometricPrecision" transform="matrix(1,0,0,1,-461,-389)" stroke="rgb(232,217,114)">
      <rect x="603.5894" width="30" height="30" y="405" clip-path="url(#clipPath2)" stroke="none"/>
    </g>
    <g text-rendering="geometricPrecision" stroke-miterlimit="1.45" shape-rendering="geometricPrecision" transform="matrix(1,0,0,1,-461,-389)" stroke-linecap="butt">
      <rect fill="none" x="603.5894" width="30" height="30" y="405" clip-path="url(#clipPath2)"/>
      <text x="615.675" y="424.0178" clip-path="url(#clipPath2)" fill="white" font-family="'Fira Sans Light'" stroke="none" xml:space="preserve">3</text>
    </g>
    <g fill="rgb(183,204,117)" text-rendering="geometricPrecision" shape-rendering="geometricPrecision" transform="matrix(1,0,0,1,-461,-389)" stroke="rgb(183,204,117)">
      <rect x="646.0413" width="30" height="30" y="405" clip-path="url(#clipPath2)" stroke="none"/>
    </g>
    <g text-rendering="geometricPrecision" stroke-miterlimit="1.45" shape-rendering="geometricPrecision" transform="matrix(1,0,0,1,-461,-389)" stroke-linecap="butt">
      <rect fill="none" x="646.0413" width="30" height="30" y="405" clip-path="url(#clipPath2)"/>
      <text x="657.935" y="424.0178" clip-path="url(#clipPath2)" fill="white" font-family="'Fira Sans Light'" stroke="none" xml:space="preserve">4</text>
    </g>
    <g fill="rgb(100,139,191)" text-rendering="geometricPrecision" shape-rendering="geometricPrecision" transform="matrix(1,0,0,1,-461,-389)" stroke="rgb(100,139,191)">
      <rect x="688.4931" width="30" height="30" y="405" clip-path="url(#clipPath2)" stroke="none"/>
    </g>
    <g text-rendering="geometricPrecision" stroke-miterlimit="1.45" shape-rendering="geometricPrecision" transform="matrix(1,0,0,1,-461,-389)" stroke-linecap="butt">
      <rect fill="none" x="688.4931" width="30" height="30" y="405" clip-path="url(#clipPath2)"/>
      <text x="700.5728" y="424.0178" clip-path="url(#clipPath2)" fill="white" font-family="'Fira Sans Light'" stroke="none" xml:space="preserve">5</text>
    </g>
    <g fill="rgb(205,164,182)" text-rendering="geometricPrecision" shape-rendering="geometricPrecision" transform="matrix(1,0,0,1,-461,-389)" stroke="rgb(205,164,182)">
      <rect x="476.2339" width="30" height="30" y="436" clip-path="url(#clipPath2)" stroke="none"/>
    </g>
    <g text-rendering="geometricPrecision" stroke-miterlimit="1.45" shape-rendering="geometricPrecision" transform="matrix(1,0,0,1,-461,-389)" stroke-linecap="butt">
      <rect fill="none" x="476.2339" width="30" height="30" y="436" clip-path="url(#clipPath2)"/>
      <text x="487.9357" y="455.0178" clip-path="url(#clipPath2)" fill="white" font-family="'Fira Sans Light'" stroke="none" xml:space="preserve">0</text>
    </g>
    <g fill="rgb(230,82,106)" text-rendering="geometricPrecision" shape-rendering="geometricPrecision" transform="matrix(1,0,0,1,-461,-389)" stroke="rgb(230,82,106)">
      <rect x="518.6858" width="30" height="30" y="436" clip-path="url(#clipPath2)" stroke="none"/>
    </g>
    <g text-rendering="geometricPrecision" stroke-miterlimit="1.45" shape-rendering="geometricPrecision" transform="matrix(1,0,0,1,-461,-389)" stroke-linecap="butt">
      <rect fill="none" x="518.6858" width="30" height="30" y="436" clip-path="url(#clipPath2)"/>
      <text x="531.2091" y="455.0178" clip-path="url(#clipPath2)" fill="white" font-family="'Fira Sans Light'" stroke="none" xml:space="preserve">1</text>
    </g>
    <g fill="rgb(253,170,125)" text-rendering="geometricPrecision" shape-rendering="geometricPrecision" transform="matrix(1,0,0,1,-461,-389)" stroke="rgb(253,170,125)">
      <rect x="561.1376" width="30" height="30" y="436" clip-path="url(#clipPath2)" stroke="none"/>
    </g>
    <g text-rendering="geometricPrecision" stroke-miterlimit="1.45" shape-rendering="geometricPrecision" transform="matrix(1,0,0,1,-461,-389)" stroke-linecap="butt">
      <rect fill="none" x="561.1376" width="30" height="30" y="436" clip-path="url(#clipPath2)"/>
      <text x="573.2652" y="455.0178" clip-path="url(#clipPath2)" fill="white" font-family="'Fira Sans Light'" stroke="none" xml:space="preserve">2</text>
    </g>
    <g fill="rgb(232,217,114)" text-rendering="geometricPrecision" shape-rendering="geometricPrecision" transform="matrix(1,0,0,1,-461,-389)" stroke="rgb(232,217,114)">
      <rect x="603.5894" width="30" height="30" y="436" clip-path="url(#clipPath2)" stroke="none"/>
    </g>
    <g text-rendering="geometricPrecision" stroke-miterlimit="1.45" shape-rendering="geometricPrecision" transform="matrix(1,0,0,1,-461,-389)" stroke-linecap="butt">
      <rect fill="none" x="603.5894" width="30" height="30" y="436" clip-path="url(#clipPath2)"/>
      <text x="615.675" y="455.0178" clip-path="url(#clipPath2)" fill="white" font-family="'Fira Sans Light'" stroke="none" xml:space="preserve">3</text>
    </g>
    <g fill="rgb(183,204,117)" text-rendering="geometricPrecision" shape-rendering="geometricPrecision" transform="matrix(1,0,0,1,-461,-389)" stroke="rgb(183,204,117)">
      <rect x="646.0413" width="30" height="30" y="436" clip-path="url(#clipPath2)" stroke="none"/>
    </g>
    <g text-rendering="geometricPrecision" stroke-miterlimit="1.45" shape-rendering="geometricPrecision" transform="matrix(1,0,0,1,-461,-389)" stroke-linecap="butt">
      <rect fill="none" x="646.0413" width="30" height="30" y="436" clip-path="url(#clipPath2)"/>
      <text x="657.935" y="455.0178" clip-path="url(#clipPath2)" fill="white" font-family="'Fira Sans Light'" stroke="none" xml:space="preserve">4</text>
    </g>
    <g fill="rgb(100,139,191)" text-rendering="geometricPrecision" shape-rendering="geometricPrecision" transform="matrix(1,0,0,1,-461,-389)" stroke="rgb(100,139,191)">
      <rect x="688.4931" width="30" height="30" y="436" clip-path="url(#clipPath2)" stroke="none"/>
    </g>
    <g text-rendering="geometricPrecision" stroke-miterlimit="1.45" shape-rendering="geometricPrecision" transform="matrix(1,0,0,1,-461,-389)" stroke-linecap="butt">
      <rect fill="none" x="688.4931" width="30" height="30" y="436" clip-path="url(#clipPath2)"/>
      <text x="700.5728" y="455.0178" clip-path="url(#clipPath2)" fill="white" font-family="'Fira Sans Light'" stroke="none" xml:space="preserve">5</text>
    </g>
    <g fill="rgb(205,164,182)" text-rendering="geometricPrecision" shape-rendering="geometricPrecision" transform="matrix(1,0,0,1,-461,-389)" stroke="rgb(205,164,182)">
      <rect x="893.9277" width="30" height="30" y="405" clip-path="url(#clipPath2)" stroke="none"/>
    </g>
    <g text-rendering="geometricPrecision" stroke-miterlimit="1.45" shape-rendering="geometricPrecision" transform="matrix(1,0,0,1,-461,-389)" stroke-linecap="butt">
      <rect fill="none" x="893.9277" width="30" height="30" y="405" clip-path="url(#clipPath2)"/>
      <text x="905.6295" y="424.0178" clip-path="url(#clipPath2)" fill="white" font-family="'Fira Sans Light'" stroke="none" xml:space="preserve">0</text>
    </g>
    <g fill="rgb(230,82,106)" text-rendering="geometricPrecision" shape-rendering="geometricPrecision" transform="matrix(1,0,0,1,-461,-389)" stroke="rgb(230,82,106)">
      <rect x="936.3795" width="30" height="30" y="405" clip-path="url(#clipPath2)" stroke="none"/>
    </g>
    <g text-rendering="geometricPrecision" stroke-miterlimit="1.45" shape-rendering="geometricPrecision" transform="matrix(1,0,0,1,-461,-389)" stroke-linecap="butt">
      <rect fill="none" x="936.3795" width="30" height="30" y="405" clip-path="url(#clipPath2)"/>
      <text x="948.9029" y="424.0178" clip-path="url(#clipPath2)" fill="white" font-family="'Fira Sans Light'" stroke="none" xml:space="preserve">1</text>
    </g>
    <g fill="rgb(253,170,125)" text-rendering="geometricPrecision" shape-rendering="geometricPrecision" transform="matrix(1,0,0,1,-461,-389)" stroke="rgb(253,170,125)">
      <rect x="978.8314" width="30" height="30" y="405" clip-path="url(#clipPath2)" stroke="none"/>
    </g>
    <g text-rendering="geometricPrecision" stroke-miterlimit="1.45" shape-rendering="geometricPrecision" transform="matrix(1,0,0,1,-461,-389)" stroke-linecap="butt">
      <rect fill="none" x="978.8314" width="30" height="30" y="405" clip-path="url(#clipPath2)"/>
      <text x="990.9589" y="424.0178" clip-path="url(#clipPath2)" fill="white" font-family="'Fira Sans Light'" stroke="none" xml:space="preserve">2</text>
    </g>
    <g fill="rgb(232,217,114)" text-rendering="geometricPrecision" shape-rendering="geometricPrecision" transform="matrix(1,0,0,1,-461,-389)" stroke="rgb(232,217,114)">
      <rect x="1021.2832" width="30" height="30" y="405" clip-path="url(#clipPath2)" stroke="none"/>
    </g>
    <g text-rendering="geometricPrecision" stroke-miterlimit="1.45" shape-rendering="geometricPrecision" transform="matrix(1,0,0,1,-461,-389)" stroke-linecap="butt">
      <rect fill="none" x="1021.2832" width="30" height="30" y="405" clip-path="url(#clipPath2)"/>
      <text x="1033.3688" y="424.0178" clip-path="url(#clipPath2)" fill="white" font-family="'Fira Sans Light'" stroke="none" xml:space="preserve">3</text>
    </g>
    <g fill="rgb(183,204,117)" text-rendering="geometricPrecision" shape-rendering="geometricPrecision" transform="matrix(1,0,0,1,-461,-389)" stroke="rgb(183,204,117)">
      <rect x="1063.735" width="30" height="30" y="405" clip-path="url(#clipPath2)" stroke="none"/>
    </g>
    <g text-rendering="geometricPrecision" stroke-miterlimit="1.45" shape-rendering="geometricPrecision" transform="matrix(1,0,0,1,-461,-389)" stroke-linecap="butt">
      <rect fill="none" x="1063.735" width="30" height="30" y="405" clip-path="url(#clipPath2)"/>
      <text x="1075.6288" y="424.0178" clip-path="url(#clipPath2)" fill="white" font-family="'Fira Sans Light'" stroke="none" xml:space="preserve">4</text>
    </g>
    <g fill="rgb(100,139,191)" text-rendering="geometricPrecision" shape-rendering="geometricPrecision" transform="matrix(1,0,0,1,-461,-389)" stroke="rgb(100,139,191)">
      <rect x="851.4758" width="30" height="30" y="405" clip-path="url(#clipPath2)" stroke="none"/>
    </g>
    <g text-rendering="geometricPrecision" stroke-miterlimit="1.45" shape-rendering="geometricPrecision" transform="matrix(1,0,0,1,-461,-389)" stroke-linecap="butt">
      <rect fill="none" x="851.4758" width="30" height="30" y="405" clip-path="url(#clipPath2)"/>
      <text x="863.5554" y="424.0178" clip-path="url(#clipPath2)" fill="white" font-family="'Fira Sans Light'" stroke="none" xml:space="preserve">5</text>
    </g>
    <g fill="rgb(205,164,182)" text-rendering="geometricPrecision" shape-rendering="geometricPrecision" transform="matrix(1,0,0,1,-461,-389)" stroke="rgb(205,164,182)">
      <rect x="851.4758" width="30" height="30" y="436" clip-path="url(#clipPath2)" stroke="none"/>
    </g>
    <g text-rendering="geometricPrecision" stroke-miterlimit="1.45" shape-rendering="geometricPrecision" transform="matrix(1,0,0,1,-461,-389)" stroke-linecap="butt">
      <rect fill="none" x="851.4758" width="30" height="30" y="436" clip-path="url(#clipPath2)"/>
      <text x="863.1777" y="455.0178" clip-path="url(#clipPath2)" fill="white" font-family="'Fira Sans Light'" stroke="none" xml:space="preserve">0</text>
    </g>
    <g fill="rgb(230,82,106)" text-rendering="geometricPrecision" shape-rendering="geometricPrecision" transform="matrix(1,0,0,1,-461,-389)" stroke="rgb(230,82,106)">
      <rect x="893.9277" width="30" height="30" y="436" clip-path="url(#clipPath2)" stroke="none"/>
    </g>
    <g text-rendering="geometricPrecision" stroke-miterlimit="1.45" shape-rendering="geometricPrecision" transform="matrix(1,0,0,1,-461,-389)" stroke-linecap="butt">
      <rect fill="none" x="893.9277" width="30" height="30" y="436" clip-path="url(#clipPath2)"/>
      <text x="906.451" y="455.0178" clip-path="url(#clipPath2)" fill="white" font-family="'Fira Sans Light'" stroke="none" xml:space="preserve">1</text>
    </g>
    <g fill="rgb(253,170,125)" text-rendering="geometricPrecision" shape-rendering="geometricPrecision" transform="matrix(1,0,0,1,-461,-389)" stroke="rgb(253,170,125)">
      <rect x="936.3795" width="30" height="30" y="436" clip-path="url(#clipPath2)" stroke="none"/>
    </g>
    <g text-rendering="geometricPrecision" stroke-miterlimit="1.45" shape-rendering="geometricPrecision" transform="matrix(1,0,0,1,-461,-389)" stroke-linecap="butt">
      <rect fill="none" x="936.3795" width="30" height="30" y="436" clip-path="url(#clipPath2)"/>
      <text x="948.5071" y="455.0178" clip-path="url(#clipPath2)" fill="white" font-family="'Fira Sans Light'" stroke="none" xml:space="preserve">2</text>
    </g>
    <g fill="rgb(232,217,114)" text-rendering="geometricPrecision" shape-rendering="geometricPrecision" transform="matrix(1,0,0,1,-461,-389)" stroke="rgb(232,217,114)">
      <rect x="978.8314" width="30" height="30" y="436" clip-path="url(#clipPath2)" stroke="none"/>
    </g>
    <g text-rendering="geometricPrecision" stroke-miterlimit="1.45" shape-rendering="geometricPrecision" transform="matrix(1,0,0,1,-461,-389)" stroke-linecap="butt">
      <rect fill="none" x="978.8314" width="30" height="30" y="436" clip-path="url(#clipPath2)"/>
      <text x="990.917" y="455.0178" clip-path="url(#clipPath2)" fill="white" font-family="'Fira Sans Light'" stroke="none" xml:space="preserve">3</text>
    </g>
    <g fill="rgb(183,204,117)" text-rendering="geometricPrecision" shape-rendering="geometricPrecision" transform="matrix(1,0,0,1,-461,-389)" stroke="rgb(183,204,117)">
      <rect x="1021.2832" width="30" height="30" y="436" clip-path="url(#clipPath2)" stroke="none"/>
    </g>
    <g text-rendering="geometricPrecision" stroke-miterlimit="1.45" shape-rendering="geometricPrecision" transform="matrix(1,0,0,1,-461,-389)" stroke-linecap="butt">
      <rect fill="none" x="1021.2832" width="30" height="30" y="436" clip-path="url(#clipPath2)"/>
      <text x="1033.1769" y="455.0178" clip-path="url(#clipPath2)" fill="white" font-family="'Fira Sans Light'" stroke="none" xml:space="preserve">4</text>
    </g>
    <g fill="rgb(100,139,191)" text-rendering="geometricPrecision" shape-rendering="geometricPrecision" transform="matrix(1,0,0,1,-461,-389)" stroke="rgb(100,139,191)">
      <rect x="1063.735" width="30" height="30" y="436" clip-path="url(#clipPath2)" stroke="none"/>
    </g>
    <g text-rendering="geometricPrecision" stroke-miterlimit="1.45" shape-rendering="geometricPrecision" transform="matrix(1,0,0,1,-461,-389)" stroke-linecap="butt">
      <rect fill="none" x="1063.735" width="30" height="30" y="436" clip-path="url(#clipPath2)"/>
      <text x="1075.8147" y="455.0178" clip-path="url(#clipPath2)" fill="white" font-family="'Fira Sans Light'" stroke="none" xml:space="preserve">5</text>
    </g>
    <g text-rendering="geometricPrecision" stroke-miterlimit="1.45" shape-rendering="geometricPrecision" transform="matrix(1,0,0,1,-461,-389)" stroke-linecap="butt">
      <path fill="none" d="M807.4758 425 L810.9758 432 L748.4931 432 L748.4931 439 L810.9758 439 L807.4758 446 L821.4758 435.5 L807.4758 425 Z" clip-path="url(#clipPath2)"/>
    </g>
  </g>
</svg>
